<?xml version="1.0" encoding="UTF-8"?>
<svg version="1.1" xmlns="http://www.w3.org/2000/svg" width="707" height="353">
<path d="M0 0 C1.07006287 0.00188324 2.14012573 0.00376648 3.24261475 0.00570679 C16.66312763 0.0333653 30.0832714 0.10261793 43.5 0.4375 C44.72928223 0.45989746 45.95856445 0.48229492 47.22509766 0.50537109 C54.39793593 0.73250926 59.84738817 1.16925967 65.51953125 5.921875 C66.34517578 6.88867188 66.34517578 6.88867188 67.1875 7.875 C68.03248047 8.82632813 68.03248047 8.82632813 68.89453125 9.796875 C73.33414904 16.77843754 72.67704475 24.50245622 72.625 32.5 C72.63660156 34.27117187 72.63660156 34.27117187 72.6484375 36.078125 C72.61145 52.68551353 72.61145 52.68551353 67.875 58.6875 C65.375 61.125 65.375 61.125 63.375 61.125 C63.14683594 61.8675 62.91867187 62.61 62.68359375 63.375 C61.10532188 66.69172656 59.38949062 67.97494516 56.4375 70.125 C52.70154488 72.85406294 50.68041641 75.14406238 48.375 79.125 C46.47265625 80.96875 46.47265625 80.96875 44.4375 82.625 C41.32928447 85.23133853 38.88925442 87.93383093 36.375 91.125 C35.715 91.125 35.055 91.125 34.375 91.125 C34.148125 91.681875 33.92125 92.23875 33.6875 92.8125 C31.99356764 95.79704749 29.85885302 97.75154045 27.375 100.125 C26.20566057 101.28898776 25.03912768 102.45579986 23.875 103.625 C15.375 112.125 15.375 112.125 13.0625 114.40234375 C10.28687332 117.2142795 7.63930359 120.12423105 5 123.0625 C1.54894618 126.87523631 -1.90791548 130.5050449 -5.9921875 133.6484375 C-7.57889261 135.0833048 -8.86757384 136.56880517 -10.22705078 138.21728516 C-11.01837402 139.17683105 -11.80969727 140.13637695 -12.625 141.125 C-11.76802017 141.12420441 -10.91104034 141.12340881 -10.02809143 141.12258911 C-1.92199624 141.12037441 6.18339593 141.14695633 14.28929043 141.2052784 C18.45595056 141.23425823 22.62205129 141.25239476 26.78881836 141.24511719 C30.81577719 141.23849332 34.84163361 141.26117995 38.86836433 141.30355453 C40.39877456 141.31463187 41.92929732 141.31543464 43.45971489 141.30542374 C52.52504898 141.2537617 59.46242513 141.69918263 66.375 148.125 C70.02362936 151.77362936 71.42968123 155.05465386 72.375 160.125 C72.27718508 165.83087017 71.27853369 171.08782162 67.31640625 175.328125 C66.53136719 176.00359375 65.74632812 176.6790625 64.9375 177.375 C64.15503906 178.06078125 63.37257813 178.7465625 62.56640625 179.453125 C58.18715877 182.79415516 53.55264607 182.29888224 48.28881836 182.33374023 C46.89311111 182.34841591 46.89311111 182.34841591 45.46920776 182.36338806 C42.38443428 182.3933424 39.29970431 182.41473157 36.21484375 182.43359375 C35.15991793 182.44016558 34.1049921 182.4467374 33.01809883 182.45350838 C27.43045518 182.48610739 21.8428306 182.51055301 16.25512695 182.5300293 C11.63895759 182.54781753 7.02340194 182.58259788 2.4074707 182.63256836 C-3.17223465 182.69289948 -8.75137248 182.72352348 -14.33138847 182.73320198 C-16.4527897 182.74173837 -18.57417651 182.76051134 -20.6953907 182.7899456 C-42.19464162 183.07212743 -42.19464162 183.07212743 -49.625 176.125 C-53.26947252 172.30274834 -54.72383421 169.29270204 -54.81787109 164.04003906 C-54.84196548 162.81296234 -54.84196548 162.81296234 -54.86654663 161.56109619 C-54.9112186 157.82036352 -54.95206693 154.07980457 -54.97509766 150.33886719 C-54.99164006 148.3699968 -55.01890744 146.40118605 -55.05712891 144.43261719 C-55.11209353 141.58497151 -55.13380178 138.73873079 -55.1484375 135.890625 C-55.17110687 135.01746643 -55.19377625 134.14430786 -55.21713257 133.24468994 C-55.19633107 127.1819715 -53.82242088 123.537666 -49.625 119.125 C-47.64239574 117.43767723 -45.6417658 115.77133943 -43.625 114.125 C-41.99986098 112.28369046 -40.44793121 110.40444822 -38.921875 108.48046875 C-38.49390625 108.03316406 -38.0659375 107.58585937 -37.625 107.125 C-36.965 107.125 -36.305 107.125 -35.625 107.125 C-35.625 106.465 -35.625 105.805 -35.625 105.125 C-34.00747503 103.41059966 -32.32980609 101.75263379 -30.625 100.125 C-28.76941445 98.29310278 -26.91527644 96.45973829 -25.0625 94.625 C-24.13308594 93.7071875 -23.20367188 92.789375 -22.24609375 91.84375 C-19.62399307 89.20825092 -19.62399307 89.20825092 -17.5 86.46484375 C-15.83462059 84.38658902 -14.25805367 82.83724831 -12.1875 81.1875 C-8.86932597 78.42825081 -6.33636675 75.47853256 -3.625 72.125 C-1.96837754 70.44834929 -0.30000878 68.78328259 1.375 67.125 C2.39086284 66.08874696 3.40513288 65.05093055 4.41796875 64.01171875 C5.46610033 62.94526777 6.51427786 61.87886196 7.5625 60.8125 C8.09552734 60.26271484 8.62855469 59.71292969 9.17773438 59.14648438 C10.53924956 57.76784322 11.95340502 56.44160273 13.375 55.125 C14.035 55.125 14.695 55.125 15.375 55.125 C15.74625 54.196875 15.74625 54.196875 16.125 53.25 C17.60270762 50.73789704 18.81455177 50.36392656 21.375 49.125 C21.705 48.135 22.035 47.145 22.375 46.125 C23.035 46.125 23.695 46.125 24.375 46.125 C24.8390625 45.1659375 24.8390625 45.1659375 25.3125 44.1875 C26.375 42.125 26.375 42.125 27.375 41.125 C26.52610703 41.10882629 25.67721405 41.09265259 24.80259705 41.07598877 C16.783974 40.91979859 8.76600901 40.74513112 0.74823666 40.54994583 C-3.37335432 40.45025505 -7.49484864 40.35759646 -11.61694336 40.28125 C-15.59857886 40.2072421 -19.57938167 40.11444725 -23.56030083 40.00887299 C-25.07550822 39.97194398 -26.59089357 39.94166969 -28.10637093 39.91831207 C-44.18780728 39.66168135 -44.18780728 39.66168135 -50.3671875 33.34375 C-50.74101563 32.7765625 -51.11484375 32.209375 -51.5 31.625 C-51.88929688 31.0578125 -52.27859375 30.490625 -52.6796875 29.90625 C-54.94547516 25.63683192 -55.26107629 20.86978528 -54.625 16.125 C-53.57857178 13.26545357 -52.20000148 10.72491053 -50.625 8.125 C-50.191875 7.361875 -49.75875 6.59875 -49.3125 5.8125 C-44.91752947 1.41752947 -39.10899517 0.70878535 -33.1640625 0.4453125 C-32.07745834 0.39577927 -32.07745834 0.39577927 -30.96890259 0.34524536 C-20.65263251 -0.07122364 -10.32257766 -0.02735472 0 0 Z " fill="#070707" transform="translate(598.625,86.875)"/>
<path d="M0 0 C0.80179688 0.46148437 1.60359375 0.92296875 2.4296875 1.3984375 C13.41797171 8.16346657 22.23798678 17.83192747 30 28 C30.54527344 28.68320313 31.09054687 29.36640625 31.65234375 30.0703125 C33.00906002 32.0129729 33.75502148 33.69813004 34.5 35.9375 C35.35142106 38.34985967 36.14905525 40.24221478 37.5 42.4375 C41.22938313 48.80852951 42.63596512 56.15188464 43.75 63.375 C43.94275513 64.61672974 43.94275513 64.61672974 44.1394043 65.88354492 C45.34454526 74.31458244 45.24448969 81.99692542 42 90 C41.34 90 40.68 90 40 90 C39.6596875 90.928125 39.6596875 90.928125 39.3125 91.875 C37.61583557 94.6219805 35.94748289 94.86635273 33 96 C32.67 96.99 32.34 97.98 32 99 C27.42827832 101.08279269 23.04311951 101.29180453 18.10205078 101.2746582 C17.33373932 101.27976913 16.56542786 101.28488007 15.77383423 101.29014587 C13.24757988 101.30398448 10.72160013 101.30308933 8.1953125 101.30078125 C6.42943217 101.30467158 4.66355276 101.30900694 2.89767456 101.31376648 C-0.79920488 101.32121655 -4.4959888 101.3209464 -8.19287109 101.31567383 C-12.91596915 101.30988348 -17.63867451 101.32680553 -22.36170769 101.3500185 C-26.00784569 101.36479522 -29.65389 101.36562215 -33.30005264 101.36250877 C-35.04066876 101.36302009 -36.78129039 101.36822211 -38.52187729 101.37832069 C-40.96259357 101.39074336 -43.40255628 101.38385891 -45.84326172 101.37231445 C-46.55313232 101.37995819 -47.26300293 101.38760193 -47.99438477 101.39547729 C-55.30727064 101.3195365 -62.11049408 99.00068481 -67.51171875 93.984375 C-70.6375697 89.81657373 -71.64226895 85.12747842 -72 80 C-71.40769132 76.15232552 -70.39351855 72.63029448 -69 69 C-68.34 69 -67.68 69 -67 69 C-66.01 67.02 -66.01 67.02 -65 65 C-64.34 65 -63.68 65 -63 65 C-63 64.34 -63 63.68 -63 63 C-59.15386408 61.21177031 -56.15208344 60.75514912 -51.92456055 60.77294922 C-50.12325935 60.77317581 -50.12325935 60.77317581 -48.28556824 60.77340698 C-46.35563774 60.78889084 -46.35563774 60.78889084 -44.38671875 60.8046875 C-43.04865226 60.80842088 -41.71058303 60.81126632 -40.37251282 60.81326294 C-36.86258301 60.82087384 -33.35282055 60.84050018 -29.84295654 60.8626709 C-26.25665551 60.88318436 -22.67032726 60.89227638 -19.08398438 60.90234375 C-12.05592115 60.92374871 -5.02796862 60.95785369 2 61 C1.25553255 59.41220679 0.49928178 57.82993584 -0.26171875 56.25 C-0.68155029 55.36828125 -1.10138184 54.4865625 -1.53393555 53.578125 C-3.43075381 50.24250454 -5.79426005 47.90317233 -8.64453125 45.375 C-10 44 -10 44 -10 42 C-11.485 41.505 -11.485 41.505 -13 41 C-13 40.34 -13 39.68 -13 39 C-13.5671875 38.88527344 -14.134375 38.77054688 -14.71875 38.65234375 C-17.2461094 37.92962283 -19.22541106 36.87506245 -21.5 35.5625 C-22.99729758 34.70360498 -24.49722695 33.84927843 -26 33 C-26.6290625 32.63777344 -27.258125 32.27554688 -27.90625 31.90234375 C-33.12670076 29.65248531 -38.78853689 29.81747016 -44.375 29.8125 C-45.45007813 29.79413086 -45.45007813 29.79413086 -46.546875 29.77539062 C-54.793699 29.75306168 -61.90687819 31.80975722 -69 36 C-69.86882812 36.51046875 -70.73765625 37.0209375 -71.6328125 37.546875 C-80.84753471 43.55312848 -85.2436932 51.42879332 -90.57421875 60.75390625 C-93.00600662 64.58480495 -96.04574385 67.50686994 -100.5078125 68.6328125 C-105.36654863 69.14368632 -110.1805186 69.14433458 -115.0625 69.125 C-116.53299805 69.13080078 -116.53299805 69.13080078 -118.03320312 69.13671875 C-118.98259766 69.13542969 -119.93199219 69.13414062 -120.91015625 69.1328125 C-122.19611694 69.13112061 -122.19611694 69.13112061 -123.50805664 69.12939453 C-126.11821348 68.99386175 -128.47822741 68.69291826 -131 68 C-133.71697286 62.56605428 -131.51735746 56.18222267 -129.91015625 50.6953125 C-128.62576616 46.89175386 -126.99259685 43.47860128 -125 40 C-124.56816406 39.24332031 -124.13632813 38.48664063 -123.69140625 37.70703125 C-122.16825868 35.11066316 -120.59637851 32.55200876 -119 30 C-118.35546875 28.96746094 -117.7109375 27.93492188 -117.046875 26.87109375 C-113.47117577 21.30965316 -110.32843609 16.9075198 -105 13 C-104.2575 12.21625 -103.515 11.4325 -102.75 10.625 C-90.58937369 -0.98287057 -75.45118203 -7.64705316 -59 -10 C-58.03449219 -10.18046875 -57.06898438 -10.3609375 -56.07421875 -10.546875 C-36.92951368 -13.36871209 -16.5512377 -10.01901589 0 0 Z " fill="#080808" transform="translate(303,98)"/>
<path d="M0 0 C9.19154537 7.34832103 17.920868 15.73767805 23.36328125 26.265625 C24.50296185 28.51623426 24.50296185 28.51623426 25.82421875 30.53125 C30.27053246 37.63994608 31.74452203 45.43935431 33.546875 53.5234375 C33.723396 54.15564209 33.89991699 54.78784668 34.08178711 55.43920898 C35.02017325 59.64445962 34.81703095 63.98257338 34.859375 68.2734375 C34.88837891 69.23765625 34.91738281 70.201875 34.94726562 71.1953125 C35.01358715 78.7049496 33.68397918 84.29670177 28.359375 89.7734375 C27.43125 90.3509375 26.503125 90.9284375 25.546875 91.5234375 C25.0114357 91.86282852 24.4759964 92.20221954 23.92433167 92.55189514 C16.0785691 96.77731123 7.53490469 96.08340489 -1.11328125 96.01953125 C-2.83003297 96.01968648 -4.54678504 96.02117939 -6.26353455 96.02394104 C-9.84845616 96.02532008 -13.43297527 96.01284927 -17.01782227 95.98999023 C-21.59627796 95.9615855 -26.17406685 95.96435539 -30.75257206 95.97708035 C-34.29322433 95.98405831 -37.8337244 95.9762245 -41.37435722 95.96382332 C-43.06192884 95.95933089 -44.74951692 95.95895256 -46.43708992 95.96288872 C-48.80092617 95.96582245 -51.16386549 95.94919329 -53.52758789 95.92749023 C-54.21404388 95.93199188 -54.90049988 95.93649353 -55.60775757 95.94113159 C-63.14785449 95.82699057 -69.46992562 93.30915747 -74.9765625 88.1796875 C-79.18785452 83.45591021 -80.06628566 78.13163816 -79.87109375 72.015625 C-78.79870044 65.62135464 -74.2167082 60.66023344 -69.453125 56.5234375 C-66.24965041 55.45561264 -63.97124677 55.40285444 -60.60473633 55.40991211 C-58.80320854 55.41002541 -58.80320854 55.41002541 -56.96528625 55.41014099 C-55.0198719 55.41788292 -55.0198719 55.41788292 -53.03515625 55.42578125 C-51.69422966 55.42764673 -50.35330239 55.42907002 -49.01237488 55.43006897 C-45.48603427 55.43388394 -41.95973496 55.44370551 -38.43341064 55.45477295 C-34.83386799 55.465009 -31.23431865 55.46957129 -27.63476562 55.47460938 C-20.57420187 55.4853287 -13.51366613 55.50239288 -6.453125 55.5234375 C-8.15601454 52.06294474 -9.79757249 48.84121796 -12.140625 45.7734375 C-14.453125 42.5234375 -14.453125 42.5234375 -14.453125 40.5234375 C-15.113125 40.5234375 -15.773125 40.5234375 -16.453125 40.5234375 C-18.578125 38.6484375 -18.578125 38.6484375 -20.453125 36.5234375 C-20.453125 35.8634375 -20.453125 35.2034375 -20.453125 34.5234375 C-21.49146484 34.13865234 -21.49146484 34.13865234 -22.55078125 33.74609375 C-26.96450366 31.88674635 -31.03852051 29.44483627 -35.19921875 27.08203125 C-40.93772071 24.33333703 -46.590726 24.34148679 -52.828125 24.3359375 C-53.90320313 24.31756836 -53.90320313 24.31756836 -55 24.29882812 C-66.91543833 24.26656611 -76.27019878 29.17393545 -85.453125 36.5234375 C-86.45648975 37.85424063 -87.45735983 39.18693853 -88.453125 40.5234375 C-89.113125 40.5234375 -89.773125 40.5234375 -90.453125 40.5234375 C-91.628944 42.8693398 -92.79027175 45.21997024 -93.93359375 47.58203125 C-97.89345203 55.42019466 -100.82837092 60.64851947 -109.453125 63.5234375 C-111.31324866 63.61759849 -113.1765583 63.65414887 -115.0390625 63.65625 C-116.13476562 63.65753906 -117.23046875 63.65882813 -118.359375 63.66015625 C-119.5040625 63.65628906 -120.64875 63.65242188 -121.828125 63.6484375 C-122.96507812 63.65230469 -124.10203125 63.65617187 -125.2734375 63.66015625 C-126.37171875 63.65886719 -127.47 63.65757812 -128.6015625 63.65625 C-129.60364746 63.65512207 -130.60573242 63.65399414 -131.63818359 63.65283203 C-134.34551217 63.52838414 -136.81616928 63.1309448 -139.453125 62.5234375 C-142.01772439 57.52921764 -141.34074986 54.07633704 -139.7421875 48.9609375 C-133.66160278 32.7460449 -124.66655407 13.19761803 -109.453125 3.5234375 C-108.793125 3.5234375 -108.133125 3.5234375 -107.453125 3.5234375 C-106.958125 2.0384375 -106.958125 2.0384375 -106.453125 0.5234375 C-104.1953125 -0.94140625 -104.1953125 -0.94140625 -101.328125 -2.4140625 C-100.33167969 -2.93484375 -99.33523438 -3.455625 -98.30859375 -3.9921875 C-97.36628906 -4.48203125 -96.42398438 -4.971875 -95.453125 -5.4765625 C-94.1774747 -6.19726889 -92.90568568 -6.92492593 -91.640625 -7.6640625 C-90.58875 -8.2621875 -89.536875 -8.8603125 -88.453125 -9.4765625 C-87.59847656 -9.96382813 -86.74382812 -10.45109375 -85.86328125 -10.953125 C-58.59278857 -23.13581932 -23.43026037 -17.32949862 0 0 Z " fill="#070707" transform="translate(501.453125,103.4765625)"/>
<path d="M0 0 C4.3019523 3.23000975 6.54398873 8.05851943 7.36133289 13.3029871 C7.52793944 16.61578411 7.53359885 19.89276845 7.48240185 23.20938778 C7.48313198 24.45915905 7.48386211 25.70893032 7.48461437 26.99657345 C7.48174336 30.39736602 7.45680476 33.79660978 7.42174459 37.19712853 C7.39032414 40.76048888 7.38753808 44.32387353 7.38161755 47.88735104 C7.36612481 54.62336468 7.32515919 61.35896884 7.2748701 68.0948028 C7.21883336 75.7683262 7.19145429 83.44186996 7.16639292 91.1155473 C7.11423851 106.88982113 7.0263864 122.66368723 6.91477489 138.43765926 C7.77397533 138.42877682 8.63317577 138.41989437 9.51841259 138.41074276 C17.63917677 138.33039626 25.75980629 138.26959326 33.88087749 138.23041058 C38.0554359 138.20958865 42.22966423 138.18137075 46.40403271 138.13590145 C50.43706002 138.09224961 54.46977103 138.06848163 58.50301647 138.05815029 C60.03713487 138.05079341 61.57123712 138.03642734 63.10521984 138.01473904 C72.38985485 137.88875945 79.69097585 137.8668351 87.00852489 144.26969051 C91.82581532 151.05404119 92.28907243 158.32573423 90.91477489 166.43765926 C89.00071239 169.89469051 89.00071239 169.89469051 86.91477489 172.43765926 C86.25477489 172.43765926 85.59477489 172.43765926 84.91477489 172.43765926 C84.91477489 173.09765926 84.91477489 173.75765926 84.91477489 174.43765926 C79.31081675 178.20887804 75.33458817 179.02649592 68.64988232 178.98697567 C67.29718998 179.00230846 67.29718998 179.00230846 65.91717052 179.01795101 C62.95125424 179.04563361 59.98627337 179.0438378 57.02024364 179.03922176 C54.9466979 179.04700267 52.87315531 179.05567346 50.79961681 179.06519222 C46.45793346 179.08009375 42.11657542 179.07955174 37.77488232 179.06900692 C32.22994744 179.05743022 26.68635147 179.09125673 21.1416378 179.13769627 C16.85970903 179.16726377 12.5780991 179.16890177 8.29608631 179.16267681 C6.25287573 179.16369893 4.20964629 179.17409339 2.16653538 179.19430065 C-18.66632035 179.37504581 -18.66632035 179.37504581 -26.08522511 172.43765926 C-32.94591008 164.37635442 -32.3882516 155.26592637 -32.39162159 145.21573544 C-32.39925145 143.77281424 -32.40768036 142.32989709 -32.41684437 140.88698483 C-32.43871364 136.98188579 -32.44757792 133.07686502 -32.45267081 129.17171168 C-32.4563231 126.72778739 -32.46256763 124.28388332 -32.4696722 121.83996677 C-32.49413955 113.30212796 -32.5072129 104.76434969 -32.51076221 96.22647762 C-32.51439628 88.28690581 -32.5442892 80.34772083 -32.5861668 72.4082672 C-32.62093341 65.5757412 -32.63631175 58.74334303 -32.63700825 51.91072923 C-32.63779884 47.8369905 -32.64643661 43.76364635 -32.67500591 39.68999958 C-32.70129677 35.85580865 -32.70333132 32.02233644 -32.68735027 28.18809605 C-32.68554452 26.78773707 -32.69214703 25.3873357 -32.70816898 23.98706722 C-32.79819872 15.60194523 -32.33643355 8.31382718 -27.08522511 1.43765926 C-18.92032474 -4.439863 -8.79020127 -5.08830708 0 0 Z " fill="#080808" transform="translate(75.08522510528564,90.56234073638916)"/>
<path d="M0 0 C0.96744141 -0.01546875 1.93488281 -0.0309375 2.93164062 -0.046875 C8.84656328 -0.01448665 12.48356097 0.47417989 16.9375 4.5 C16.9375 5.16 16.9375 5.82 16.9375 6.5 C17.54851562 6.72429687 18.15953125 6.94859375 18.7890625 7.1796875 C21.62958086 8.92531515 22.10365891 10.54717057 23.3125 13.625 C25.27213012 18.26238557 27.51345267 21.96353006 30.703125 25.84375 C31.9375 27.5 31.9375 27.5 32.9375 30.5 C34.24412721 31.21759847 35.58493977 31.87325999 36.9375 32.5 C39.83696159 34.51409777 42.7099335 36.56119712 45.57421875 38.625 C52.58494865 42.53342085 59.9820731 42.86556424 67.875 42.8125 C69.19322754 42.80404053 69.19322754 42.80404053 70.53808594 42.79541016 C82.00162336 42.58044222 89.76291357 39.67458643 97.9375 31.5 C102.98999666 30.27612135 108.03787 30.35470624 113.203125 30.3671875 C114.07773376 30.36623077 114.95234253 30.36527405 115.85345459 30.36428833 C117.69234286 30.36361059 119.53123357 30.36543643 121.37011719 30.36962891 C124.1921113 30.37500879 127.01394813 30.36965696 129.8359375 30.36328125 C131.62500035 30.3639416 133.41406311 30.36522186 135.203125 30.3671875 C136.04893127 30.36516327 136.89473755 30.36313904 137.76617432 30.36105347 C143.70754717 30.38502358 143.70754717 30.38502358 145.9375 31.5 C146.2602506 36.12609198 145.78200614 38.78026121 142.9375 42.5 C142.2775 42.5 141.6175 42.5 140.9375 42.5 C140.855 43.221875 140.7725 43.94375 140.6875 44.6875 C139.78036169 48.08926868 138.33739121 49.95466084 135.9375 52.5 C135.2775 52.5 134.6175 52.5 133.9375 52.5 C133.6075 53.49 133.2775 54.48 132.9375 55.5 C131.65090837 56.87849103 130.30836915 58.20529025 128.9375 59.5 C128.195 60.28375 127.4525 61.0675 126.6875 61.875 C119.33595009 68.89238855 111.09629521 73.23553278 101.9375 77.5 C100.88691406 78.00144531 99.83632813 78.50289063 98.75390625 79.01953125 C88.74298167 83.17364899 78.87352578 84.02335193 68.125 83.9375 C67.13429001 83.93293793 67.13429001 83.93293793 66.12356567 83.92828369 C48.79501713 83.81023645 33.18959953 79.8651633 18.9375 69.5 C18.30070312 69.1184375 17.66390625 68.736875 17.0078125 68.34375 C11.96839475 65.25912419 7.79542971 61.64874195 3.625 57.5 C3.12145996 57.00177734 2.61791992 56.50355469 2.09912109 55.99023438 C-1.08940032 52.74102992 -3.62147472 49.36450566 -6.0625 45.5 C-6.68125 44.63375 -7.3 43.7675 -7.9375 42.875 C-14.30887614 32.75575555 -20.67176631 20.75495655 -20.0625 8.5 C-19.19301428 5.21527618 -17.96931358 4.43293592 -15.1640625 2.4140625 C-10.28937733 -0.28832427 -5.45270286 -0.08753503 0 0 Z " fill="#0A0A0A" transform="translate(381.0625,185.5)"/>
<path d="M0 0 C0.82048828 -0.01160156 1.64097656 -0.02320313 2.48632812 -0.03515625 C8.60143792 -0.005874 13.72276404 0.73636122 18.3828125 5.06640625 C20.93357972 8.72454247 23.11809463 12.35614942 25.0625 16.375 C30.90818937 28.39726682 39.74288865 36.04423669 52.37109375 40.68359375 C57.77148388 42.38746016 62.60947567 42.55836775 68.25 42.5625 C69.11044922 42.57474609 69.97089844 42.58699219 70.85742188 42.59960938 C76.55979333 42.61250095 82.13406766 42.26196693 87.5625 40.375 C88.5525 39.385 88.5525 39.385 89.5625 38.375 C90.5525 38.375 91.5425 38.375 92.5625 38.375 C92.5625 37.715 92.5625 37.055 92.5625 36.375 C93.98828125 35.12109375 93.98828125 35.12109375 95.875 33.8125 C96.48988281 33.37808594 97.10476563 32.94367188 97.73828125 32.49609375 C100.74847341 30.64614696 103.277919 30.24934667 106.72680664 30.24560547 C107.56099625 30.24245331 108.39518585 30.23930115 109.25465393 30.23605347 C110.1515947 30.2380777 111.04853546 30.24010193 111.97265625 30.2421875 C112.89590195 30.24123077 113.81914764 30.24027405 114.77037048 30.23928833 C116.72134469 30.23860796 118.67232116 30.24045227 120.62329102 30.24462891 C123.61675064 30.24998524 126.61006064 30.24467594 129.60351562 30.23828125 C131.49739617 30.23894194 133.39127661 30.24022291 135.28515625 30.2421875 C136.63360374 30.23915115 136.63360374 30.23915115 138.0092926 30.23605347 C139.25584877 30.24078171 139.25584877 30.24078171 140.52758789 30.24560547 C141.26022354 30.24640106 141.99285919 30.24719666 142.74769592 30.24801636 C144.5625 30.375 144.5625 30.375 146.5625 31.375 C146.5625 43.03401859 136.86065823 51.67394549 129.25390625 59.69140625 C120.54503275 68.375 120.54503275 68.375 116.5625 68.375 C116.5625 69.035 116.5625 69.695 116.5625 70.375 C106.81654577 75.65913456 97.22902517 79.40798955 86.5625 82.375 C85.95970215 82.55385742 85.3569043 82.73271484 84.73583984 82.91699219 C69.53354554 86.12071091 51.76128955 84.49603295 37.5625 78.375 C36.43714844 77.94445312 35.31179687 77.51390625 34.15234375 77.0703125 C28.81740927 74.98301128 24.27683272 72.65453581 19.5625 69.375 C18.52609375 68.65441406 17.4896875 67.93382812 16.421875 67.19140625 C15.39578125 66.44761719 14.3696875 65.70382813 13.3125 64.9375 C12.27609375 64.19628906 11.2396875 63.45507812 10.171875 62.69140625 C7.42631929 60.25410904 6.83292848 58.71266078 5.5625 55.375 C4.2337359 54.6992721 2.89983043 54.03361183 1.5625 53.375 C-3.10668183 48.97791851 -6.4285897 43.50520589 -9.625 38 C-10.04974609 37.29617187 -10.47449219 36.59234375 -10.91210938 35.8671875 C-15.55613678 27.95139584 -19.07876625 18.63033085 -19.4375 9.375 C-17.7859179 5.52130843 -16.37786834 3.9732861 -12.87109375 1.7421875 C-8.44815224 -0.01893824 -4.71183285 -0.06631196 0 0 Z " fill="#0A0A0A" transform="translate(190.4375,185.625)"/>
<path d="M0 0 C0 3 0 3 -2.3125 5.375 C-3.199375 6.24125 -4.08625 7.1075 -5 8 C-6.02304948 9.65261839 -7.02616054 11.31791365 -8 13 C-9.6875 14.8125 -9.6875 14.8125 -11 16 C-11.66 15.67 -12.32 15.34 -13 15 C-11.59027312 13.05710718 -10.17270125 11.12085734 -8.75 9.1875 C-8.35425781 8.64029297 -7.95851563 8.09308594 -7.55078125 7.52929688 C-5.30513925 4.4921581 -3.16989201 2.07206244 0 0 Z " fill="#4F4F4F" transform="translate(388,111)"/>
<path d="M0 0 C0.99 0.33 1.98 0.66 3 1 C-0.12621626 4.39417765 -2.56541027 6.6062718 -7 8 C-6.02133662 6.85373678 -5.04205413 5.70800212 -4.0625 4.5625 C-3.51722656 3.92441406 -2.97195313 3.28632813 -2.41015625 2.62890625 C-1.63204305 1.73008851 -0.84063472 0.84063472 0 0 Z " fill="#4A4A4A" transform="translate(612,142)"/>
<path d="" fill="#FFFFFF" transform="translate(0,0)"/>
<path d="" fill="#FFFFFF" transform="translate(0,0)"/>
<path d="" fill="#FFFFFF" transform="translate(0,0)"/>
<path d="" fill="#FFFFFF" transform="translate(0,0)"/>
<path d="" fill="#FFFFFF" transform="translate(0,0)"/>
<path d="" fill="#FFFFFF" transform="translate(0,0)"/>
<path d="" fill="#FFFFFF" transform="translate(0,0)"/>
<path d="" fill="#FFFFFF" transform="translate(0,0)"/>
<path d="" fill="#FFFFFF" transform="translate(0,0)"/>
<path d="" fill="#FFFFFF" transform="translate(0,0)"/>
<path d="" fill="#FFFFFF" transform="translate(0,0)"/>
<path d="" fill="#FFFFFF" transform="translate(0,0)"/>
<path d="" fill="#FFFFFF" transform="translate(0,0)"/>
<path d="" fill="#FFFFFF" transform="translate(0,0)"/>
<path d="" fill="#FFFFFF" transform="translate(0,0)"/>
<path d="" fill="#FFFFFF" transform="translate(0,0)"/>
<path d="" fill="#FFFFFF" transform="translate(0,0)"/>
<path d="" fill="#FFFFFF" transform="translate(0,0)"/>
<path d="" fill="#FFFFFF" transform="translate(0,0)"/>
<path d="" fill="#FFFFFF" transform="translate(0,0)"/>
<path d="" fill="#FFFFFF" transform="translate(0,0)"/>
<path d="" fill="#FFFFFF" transform="translate(0,0)"/>
<path d="" fill="#FFFFFF" transform="translate(0,0)"/>
<path d="" fill="#FFFFFF" transform="translate(0,0)"/>
<path d="" fill="#FFFFFF" transform="translate(0,0)"/>
<path d="" fill="#FFFFFF" transform="translate(0,0)"/>
<path d="" fill="#FFFFFF" transform="translate(0,0)"/>
<path d="" fill="#FFFFFF" transform="translate(0,0)"/>
<path d="" fill="#FFFFFF" transform="translate(0,0)"/>
<path d="" fill="#FFFFFF" transform="translate(0,0)"/>
<path d="" fill="#FFFFFF" transform="translate(0,0)"/>
<path d="" fill="#FFFFFF" transform="translate(0,0)"/>
<path d="" fill="#FFFFFF" transform="translate(0,0)"/>
<path d="" fill="#FFFFFF" transform="translate(0,0)"/>
<path d="" fill="#FFFFFF" transform="translate(0,0)"/>
<path d="" fill="#FFFFFF" transform="translate(0,0)"/>
<path d="" fill="#FFFFFF" transform="translate(0,0)"/>
<path d="" fill="#FFFFFF" transform="translate(0,0)"/>
<path d="" fill="#FFFFFF" transform="translate(0,0)"/>
<path d="" fill="#FFFFFF" transform="translate(0,0)"/>
<path d="" fill="#FFFFFF" transform="translate(0,0)"/>
<path d="" fill="#FFFFFF" transform="translate(0,0)"/>
<path d="" fill="#FFFFFF" transform="translate(0,0)"/>
<path d="" fill="#FFFFFF" transform="translate(0,0)"/>
<path d="" fill="#FFFFFF" transform="translate(0,0)"/>
<path d="" fill="#FFFFFF" transform="translate(0,0)"/>
<path d="" fill="#FFFFFF" transform="translate(0,0)"/>
<path d="" fill="#FFFFFF" transform="translate(0,0)"/>
<path d="" fill="#FFFFFF" transform="translate(0,0)"/>
<path d="" fill="#FFFFFF" transform="translate(0,0)"/>
<path d="" fill="#FFFFFF" transform="translate(0,0)"/>
<path d="" fill="#FFFFFF" transform="translate(0,0)"/>
<path d="" fill="#FFFFFF" transform="translate(0,0)"/>
<path d="" fill="#FFFFFF" transform="translate(0,0)"/>
<path d="" fill="#FFFFFF" transform="translate(0,0)"/>
<path d="" fill="#FFFFFF" transform="translate(0,0)"/>
<path d="" fill="#FFFFFF" transform="translate(0,0)"/>
<path d="" fill="#FFFFFF" transform="translate(0,0)"/>
<path d="" fill="#FFFFFF" transform="translate(0,0)"/>
<path d="" fill="#FFFFFF" transform="translate(0,0)"/>
<path d="" fill="#FFFFFF" transform="translate(0,0)"/>
<path d="" fill="#FFFFFF" transform="translate(0,0)"/>
<path d="" fill="#FFFFFF" transform="translate(0,0)"/>
<path d="" fill="#FFFFFF" transform="translate(0,0)"/>
<path d="" fill="#FFFFFF" transform="translate(0,0)"/>
</svg>
