<?xml version="1.0" standalone="no"?>
<!DOCTYPE svg PUBLIC "-//W3C//DTD SVG 20010904//EN"
 "http://www.w3.org/TR/2001/REC-SVG-20010904/DTD/svg10.dtd">
<svg version="1.0" xmlns="http://www.w3.org/2000/svg"
 width="6665.000000pt" height="6665.000000pt" viewBox="0 0 6665.000000 6665.000000"
 preserveAspectRatio="xMidYMid meet">

<g transform="translate(0.000000,6665.000000) scale(0.100000,-0.100000)"
fill="#000000" stroke="none">
<path d="M31905 56299 c-22 -4 -173 -11 -335 -14 -162 -4 -347 -13 -410 -21
-63 -8 -158 -14 -211 -14 -54 0 -150 -7 -216 -15 -65 -8 -181 -19 -258 -25
-77 -5 -162 -14 -190 -19 -27 -5 -91 -10 -140 -10 -50 -1 -106 -6 -125 -11
-19 -6 -85 -15 -146 -20 -62 -5 -129 -13 -150 -19 -22 -6 -84 -15 -139 -20
-55 -5 -120 -14 -145 -20 -25 -5 -67 -10 -95 -11 -27 0 -72 -7 -99 -15 -27 -8
-72 -15 -100 -15 -28 -1 -71 -5 -96 -11 -25 -5 -94 -16 -155 -23 -60 -8 -128
-19 -150 -25 -22 -6 -60 -11 -85 -11 -25 0 -67 -7 -94 -15 -27 -8 -70 -15 -95
-15 -26 0 -73 -7 -105 -15 -32 -8 -97 -19 -144 -24 -48 -5 -105 -14 -127 -20
-22 -6 -59 -11 -83 -11 -23 0 -68 -6 -100 -14 -57 -14 -132 -28 -272 -49 -41
-7 -81 -16 -88 -20 -7 -5 -38 -11 -70 -14 -31 -2 -74 -11 -95 -19 -20 -8 -52
-14 -71 -14 -18 0 -53 -7 -76 -15 -24 -8 -68 -18 -99 -21 -31 -4 -61 -11 -67
-15 -6 -5 -37 -13 -70 -18 -32 -5 -72 -13 -89 -19 -16 -6 -55 -16 -85 -22 -60
-12 -149 -32 -220 -50 -25 -7 -70 -18 -100 -25 -30 -7 -75 -18 -100 -24 -25
-6 -70 -16 -100 -22 -30 -6 -69 -17 -87 -25 -17 -8 -41 -14 -53 -14 -12 0 -44
-7 -71 -15 -27 -8 -70 -22 -96 -30 -27 -7 -68 -17 -92 -21 -25 -4 -56 -13 -70
-21 -14 -7 -37 -13 -50 -13 -13 0 -44 -6 -70 -14 -74 -23 -153 -45 -196 -56
-75 -17 -130 -32 -165 -45 -39 -14 -103 -31 -170 -46 -25 -5 -53 -14 -63 -20
-10 -5 -37 -14 -60 -18 -23 -5 -55 -14 -72 -19 -16 -6 -64 -20 -105 -32 -41
-12 -90 -28 -108 -36 -18 -8 -41 -14 -52 -14 -11 0 -34 -6 -52 -14 -18 -8 -67
-24 -108 -36 -41 -12 -86 -26 -100 -32 -14 -6 -41 -14 -60 -19 -38 -8 -112
-34 -145 -49 -11 -5 -38 -14 -60 -19 -50 -12 -102 -30 -137 -47 -14 -8 -34
-14 -45 -14 -10 0 -30 -6 -45 -14 -15 -8 -41 -17 -59 -21 -19 -4 -40 -11 -49
-16 -16 -10 -88 -35 -135 -49 -55 -16 -130 -43 -157 -56 -14 -8 -33 -14 -41
-14 -9 0 -29 -7 -46 -15 -17 -8 -45 -22 -62 -30 -17 -8 -36 -15 -42 -15 -7 -1
-30 -9 -52 -20 -22 -11 -47 -19 -56 -20 -8 0 -24 -7 -35 -15 -10 -8 -26 -15
-34 -15 -17 0 -98 -31 -187 -71 -34 -16 -73 -31 -87 -35 -15 -3 -29 -10 -32
-15 -3 -5 -13 -9 -22 -9 -10 0 -34 -9 -55 -20 -20 -11 -43 -20 -51 -20 -8 0
-27 -6 -43 -14 -62 -31 -121 -56 -131 -56 -6 0 -23 -6 -39 -14 -15 -8 -44 -21
-63 -29 -19 -8 -56 -24 -81 -36 -25 -12 -51 -21 -57 -21 -6 0 -23 -7 -39 -14
-67 -35 -181 -86 -191 -86 -6 0 -23 -7 -39 -15 -15 -7 -50 -24 -78 -36 -27
-11 -79 -35 -115 -51 -75 -35 -104 -48 -180 -78 -30 -11 -68 -27 -85 -35 -16
-8 -61 -28 -100 -45 -94 -42 -136 -62 -226 -104 -42 -20 -80 -36 -85 -36 -12
0 -781 -387 -894 -450 -8 -4 -53 -27 -100 -50 -47 -23 -130 -66 -185 -96 -55
-29 -127 -67 -160 -84 -33 -17 -73 -40 -90 -50 -16 -10 -55 -31 -85 -47 -30
-15 -57 -31 -60 -34 -3 -3 -17 -12 -32 -20 -120 -62 -144 -75 -148 -80 -6 -7
-52 -32 -90 -49 -13 -6 -27 -14 -30 -18 -3 -4 -30 -20 -60 -35 -111 -57 -175
-92 -180 -98 -4 -5 -104 -60 -192 -107 -18 -9 -35 -20 -38 -23 -3 -4 -32 -21
-65 -39 -33 -17 -72 -39 -87 -48 -27 -17 -171 -105 -198 -122 -8 -5 -37 -22
-63 -37 -27 -15 -59 -35 -72 -43 -52 -34 -188 -116 -213 -129 -15 -8 -29 -17
-32 -20 -3 -4 -16 -12 -30 -19 -35 -18 -58 -32 -112 -69 -26 -18 -49 -33 -53
-33 -3 0 -11 -5 -18 -11 -7 -5 -48 -32 -92 -59 -225 -137 -258 -158 -342 -215
-32 -22 -66 -44 -75 -50 -10 -5 -43 -28 -75 -51 -53 -37 -102 -71 -278 -192
-33 -23 -91 -64 -130 -91 -38 -28 -110 -78 -160 -112 -49 -33 -117 -81 -150
-105 -33 -25 -121 -90 -195 -145 -74 -55 -143 -106 -153 -114 -9 -8 -19 -15
-22 -15 -4 0 -196 -146 -535 -409 -96 -74 -180 -140 -187 -146 -17 -14 -32
-25 -78 -60 -22 -16 -45 -34 -52 -40 -36 -30 -51 -42 -121 -98 -42 -33 -88
-70 -102 -82 -47 -42 -127 -110 -180 -155 -30 -25 -61 -52 -69 -61 -9 -8 -70
-62 -136 -120 -66 -57 -124 -109 -130 -115 -10 -10 -136 -118 -162 -139 -7 -5
-31 -26 -52 -45 -21 -19 -63 -56 -92 -81 -30 -26 -66 -57 -80 -70 -14 -13 -63
-58 -108 -99 -129 -117 -130 -117 -240 -219 -58 -53 -130 -118 -160 -146 -359
-327 -1007 -976 -1351 -1351 -25 -27 -76 -83 -115 -124 -38 -42 -92 -100 -120
-131 -27 -31 -78 -87 -112 -125 -34 -38 -71 -80 -83 -94 -36 -42 -124 -142
-135 -154 -6 -6 -37 -45 -70 -86 -33 -41 -71 -86 -85 -100 -14 -14 -36 -39
-50 -56 -48 -60 -183 -219 -194 -229 -7 -5 -39 -44 -71 -85 -33 -41 -67 -81
-75 -90 -8 -8 -40 -48 -70 -88 -30 -39 -58 -72 -62 -72 -5 0 -8 -7 -8 -15 0
-7 -6 -18 -13 -22 -7 -4 -24 -24 -37 -43 -13 -19 -28 -39 -35 -45 -11 -10
-303 -382 -343 -438 -13 -18 -34 -45 -47 -62 -32 -38 -149 -199 -195 -265 -19
-28 -42 -59 -50 -69 -8 -11 -22 -29 -30 -41 -17 -25 -85 -120 -97 -135 -4 -5
-21 -30 -38 -55 -16 -25 -32 -47 -35 -50 -3 -3 -14 -18 -26 -35 -11 -16 -38
-55 -59 -85 -34 -47 -68 -97 -118 -173 -7 -11 -28 -41 -47 -67 -45 -62 -52
-72 -102 -150 -23 -36 -44 -67 -48 -70 -13 -12 -76 -106 -124 -187 -16 -26
-41 -64 -56 -83 -15 -19 -40 -57 -55 -85 -16 -27 -32 -52 -35 -55 -3 -3 -10
-14 -17 -25 -22 -36 -73 -120 -86 -140 -7 -10 -27 -41 -44 -67 -18 -26 -33
-50 -33 -53 0 -7 -39 -63 -56 -82 -7 -7 -22 -33 -34 -58 -12 -25 -26 -45 -31
-45 -5 0 -9 -6 -9 -14 0 -8 -7 -21 -15 -30 -8 -8 -20 -25 -25 -38 -6 -13 -16
-32 -23 -43 -35 -57 -144 -226 -155 -240 -4 -5 -13 -21 -20 -35 -7 -14 -21
-38 -32 -55 -11 -16 -24 -39 -30 -50 -6 -11 -21 -38 -35 -60 -13 -22 -29 -49
-35 -60 -5 -11 -19 -33 -30 -50 -10 -16 -32 -55 -48 -85 -16 -30 -48 -86 -71
-124 -24 -38 -47 -79 -52 -90 -5 -12 -18 -34 -29 -51 -11 -16 -30 -48 -42 -70
-12 -22 -28 -49 -34 -60 -7 -11 -26 -47 -44 -80 -17 -33 -41 -78 -54 -100 -12
-22 -40 -71 -61 -110 -20 -38 -44 -77 -51 -86 -8 -8 -14 -23 -14 -32 0 -9 -5
-19 -10 -22 -6 -4 -17 -21 -25 -38 -8 -18 -19 -39 -24 -47 -5 -8 -12 -22 -16
-30 -3 -8 -30 -60 -60 -115 -29 -55 -66 -125 -80 -155 -15 -30 -37 -75 -50
-100 -25 -49 -249 -498 -309 -620 -21 -41 -41 -82 -46 -90 -9 -15 -106 -221
-137 -290 -9 -19 -20 -42 -25 -50 -4 -8 -11 -22 -14 -30 -9 -24 -29 -68 -83
-180 -28 -58 -51 -110 -51 -114 0 -9 -36 -90 -51 -116 -5 -8 -12 -22 -15 -30
-6 -17 -22 -52 -53 -121 -12 -25 -21 -49 -21 -54 0 -8 -55 -129 -85 -188 -8
-16 -15 -35 -15 -42 0 -7 -6 -26 -14 -42 -31 -62 -56 -121 -56 -131 0 -6 -6
-23 -14 -39 -8 -15 -22 -46 -31 -68 -10 -22 -24 -53 -31 -68 -8 -16 -14 -33
-14 -38 0 -11 -33 -89 -55 -132 -8 -16 -15 -35 -15 -44 0 -8 -6 -27 -14 -41
-7 -15 -23 -54 -35 -87 -12 -33 -28 -73 -36 -88 -8 -16 -15 -35 -15 -44 0 -8
-6 -27 -14 -41 -21 -41 -56 -135 -56 -152 0 -8 -7 -24 -15 -34 -8 -11 -15 -27
-15 -35 -1 -9 -9 -34 -20 -56 -11 -22 -20 -47 -20 -55 0 -8 -7 -24 -15 -34 -8
-11 -15 -29 -15 -41 0 -12 -7 -30 -15 -41 -8 -10 -15 -28 -15 -39 0 -11 -6
-32 -14 -47 -8 -15 -17 -41 -21 -58 -4 -17 -13 -43 -21 -58 -8 -15 -14 -34
-14 -43 0 -8 -7 -24 -15 -35 -8 -10 -15 -30 -15 -42 0 -13 -6 -36 -14 -50 -7
-15 -23 -61 -36 -102 -12 -41 -28 -88 -36 -103 -8 -16 -14 -35 -14 -44 0 -8
-6 -29 -14 -46 -8 -18 -24 -66 -36 -107 -12 -41 -28 -88 -36 -103 -8 -16 -14
-38 -14 -50 0 -12 -7 -35 -15 -50 -8 -15 -17 -44 -21 -64 -4 -20 -13 -48 -20
-62 -8 -14 -14 -35 -14 -46 -1 -11 -7 -31 -15 -45 -8 -14 -14 -35 -15 -48 0
-13 -6 -33 -12 -45 -12 -21 -18 -40 -49 -157 -6 -25 -18 -60 -25 -78 -8 -18
-14 -42 -14 -53 0 -11 -6 -30 -12 -42 -12 -21 -18 -40 -49 -157 -6 -25 -18
-60 -25 -78 -8 -18 -14 -44 -14 -58 0 -14 -5 -35 -12 -47 -6 -12 -17 -47 -24
-77 -22 -96 -36 -144 -50 -178 -8 -18 -14 -44 -14 -58 0 -14 -6 -37 -14 -52
-7 -15 -17 -49 -21 -77 -4 -27 -11 -54 -15 -60 -4 -5 -13 -37 -19 -70 -6 -32
-16 -64 -21 -69 -6 -6 -10 -26 -10 -46 0 -19 -6 -47 -14 -62 -8 -14 -17 -46
-21 -70 -4 -24 -13 -63 -20 -88 -22 -74 -36 -132 -46 -193 -5 -33 -12 -64 -16
-70 -5 -7 -13 -39 -20 -72 -15 -81 -31 -150 -48 -210 -8 -27 -17 -70 -20 -94
-3 -24 -9 -49 -13 -55 -7 -11 -18 -63 -43 -206 -6 -36 -17 -83 -25 -105 -8
-23 -14 -54 -14 -70 0 -17 -5 -46 -11 -65 -6 -19 -17 -71 -24 -115 -7 -44 -18
-98 -24 -120 -6 -22 -11 -58 -11 -80 0 -22 -7 -51 -15 -65 -8 -14 -14 -45 -15
-70 0 -25 -5 -61 -11 -80 -11 -33 -23 -109 -49 -285 -6 -44 -18 -103 -26 -131
-8 -28 -14 -74 -14 -102 0 -28 -6 -71 -14 -94 -8 -24 -17 -74 -20 -111 -4 -38
-13 -94 -21 -125 -8 -31 -15 -79 -15 -108 0 -28 -7 -73 -15 -100 -8 -27 -15
-76 -15 -109 0 -34 -6 -85 -14 -115 -7 -30 -17 -99 -21 -154 -3 -54 -11 -109
-16 -123 -5 -13 -12 -70 -15 -126 -3 -56 -12 -127 -20 -158 -8 -31 -14 -94
-14 -140 0 -46 -5 -102 -11 -124 -6 -22 -17 -125 -25 -230 -7 -104 -18 -217
-23 -250 -5 -33 -10 -107 -10 -165 -1 -58 -6 -123 -12 -145 -5 -22 -14 -141
-19 -265 -5 -123 -14 -247 -19 -275 -6 -27 -13 -187 -16 -355 -4 -168 -10
-341 -15 -385 -5 -44 -12 -240 -16 -436 -7 -343 -6 -357 12 -367 12 -6 252 -6
689 -1 1463 20 2113 22 2801 9 673 -12 692 -12 717 6 l26 19 1 225 c1 124 5
317 11 430 5 113 16 358 24 545 8 187 19 360 24 385 6 25 10 99 11 165 0 66 7
151 15 190 8 38 15 113 16 165 0 52 5 120 9 150 5 30 14 98 20 150 6 52 18
138 26 190 8 53 14 125 14 161 0 36 7 88 15 115 8 27 15 81 15 119 0 39 7 100
14 136 8 36 18 108 22 160 4 51 13 108 20 126 8 18 14 53 14 77 0 25 6 65 14
88 8 24 16 79 19 124 4 45 11 92 17 105 5 13 14 58 19 99 16 128 32 233 42
280 6 25 14 72 19 105 5 33 13 72 18 86 6 14 13 52 17 84 5 33 14 74 21 92 8
18 14 48 14 66 0 19 7 54 15 77 8 23 15 59 15 80 0 21 9 66 20 100 11 34 20
75 20 90 0 15 7 44 15 63 8 20 15 51 15 69 0 18 6 53 14 78 14 44 25 91 50
220 7 36 18 78 24 93 7 16 12 39 12 52 0 14 6 42 14 62 8 21 17 60 20 87 3 27
11 54 16 61 5 7 13 34 16 61 4 27 13 61 20 76 8 15 14 39 14 53 0 15 6 41 14
58 14 35 30 90 50 178 8 30 18 65 25 77 6 11 11 33 11 49 0 15 7 41 15 57 8
15 15 40 15 55 1 14 9 44 20 66 11 22 20 49 20 60 0 11 7 31 15 45 8 14 14 39
15 56 0 16 7 39 15 50 8 10 15 30 15 44 0 14 9 51 20 83 11 31 20 65 20 76 0
10 7 24 15 31 8 7 15 23 15 37 0 13 6 36 14 51 7 15 16 44 20 64 4 20 13 50
21 65 8 15 15 37 15 48 1 11 7 31 15 45 8 14 14 37 15 51 0 14 7 34 15 45 8
10 15 28 15 39 0 11 7 33 15 48 8 15 17 45 21 65 4 20 13 46 19 57 7 11 16 37
19 58 4 20 11 37 16 37 6 0 10 12 10 28 1 15 9 45 20 67 11 22 19 50 20 61 0
12 7 27 15 34 8 7 15 25 15 39 0 15 7 36 15 47 8 10 15 28 15 39 0 11 9 38 20
60 11 22 19 48 20 57 0 9 7 30 15 47 8 17 22 45 30 62 8 17 15 38 15 47 0 10
9 34 20 55 11 20 20 45 20 54 0 10 7 27 15 37 8 11 15 29 15 41 0 11 6 29 14
40 7 11 17 35 21 53 3 17 10 32 15 32 4 0 13 20 19 44 6 25 15 48 21 51 5 3
10 16 10 29 0 12 7 31 15 42 8 10 15 28 15 38 0 10 10 40 21 65 12 25 29 62
37 81 8 19 21 48 28 63 8 16 14 34 14 40 1 7 9 30 20 52 11 22 19 47 20 56 0
9 7 22 15 29 8 7 15 20 15 29 0 10 7 26 15 37 8 10 15 26 15 34 0 8 9 32 20
53 11 20 20 43 20 51 0 7 7 19 15 26 8 7 15 23 15 36 0 12 7 29 15 38 8 8 15
22 15 31 0 9 8 33 19 53 44 88 51 104 51 117 0 7 7 18 15 25 8 7 15 20 15 30
0 10 15 49 34 86 30 60 80 166 107 229 5 11 13 27 18 35 4 8 15 31 24 50 54
119 69 150 78 155 5 4 9 15 9 25 0 10 7 25 15 34 8 8 15 19 15 24 0 11 76 162
90 179 5 7 10 16 10 21 0 11 76 163 90 179 5 7 10 18 11 25 0 7 14 36 30 63
16 28 32 57 35 65 3 8 10 22 15 30 5 8 12 22 15 30 6 17 49 104 66 135 17 30
24 45 58 110 17 33 35 68 40 78 6 9 14 25 20 35 5 9 23 44 40 77 17 33 40 74
50 90 10 17 31 55 47 85 15 30 40 74 55 96 16 23 28 47 28 52 0 6 6 17 13 24
7 7 18 24 25 38 7 14 23 43 35 65 13 22 43 76 67 120 24 44 46 82 49 85 4 3
12 16 19 30 7 14 21 39 32 55 11 17 25 42 31 58 6 15 15 27 20 27 5 0 9 8 9
19 0 10 7 24 15 31 8 6 17 21 21 32 3 11 18 39 33 61 15 23 46 71 69 107 23
36 46 70 52 77 5 7 10 16 10 20 1 8 71 119 90 140 5 7 10 16 10 21 0 5 15 29
33 53 28 37 63 91 132 207 6 9 24 37 40 62 39 59 53 82 61 100 4 8 14 22 21
30 13 14 50 69 194 289 31 47 64 94 73 104 9 9 16 22 16 27 0 6 7 13 15 16 8
4 15 10 15 15 0 13 87 141 121 177 8 9 30 38 47 65 67 99 92 134 149 209 32
42 65 86 73 98 35 52 116 158 133 174 9 10 17 20 17 24 0 4 16 25 35 47 47 55
42 49 126 155 40 53 80 102 86 110 7 8 52 67 99 130 48 63 92 120 98 125 6 6
38 44 71 85 33 41 69 86 81 100 34 39 177 203 194 221 47 50 165 184 215 244
32 39 63 75 69 80 6 6 24 26 40 45 71 87 115 137 166 191 30 32 68 72 84 91
74 86 486 515 707 737 286 286 458 452 709 684 41 38 95 88 120 111 25 23 77
68 115 101 39 32 104 88 145 125 41 37 100 88 130 115 30 26 77 67 103 91 27
24 50 44 52 44 2 0 19 14 37 31 18 17 64 56 103 87 38 32 84 71 102 87 18 17
38 35 45 40 7 6 47 37 88 70 41 33 80 65 85 71 6 5 29 23 52 38 24 16 53 38
65 50 13 12 42 34 65 50 23 15 61 46 84 68 23 22 133 109 243 194 111 85 208
160 216 167 8 8 35 27 60 44 25 17 55 39 67 49 12 11 57 45 100 76 139 101
251 183 273 198 12 8 42 30 66 48 23 17 46 32 49 32 4 0 26 16 49 35 24 19 46
35 50 35 4 0 27 15 50 33 24 17 54 39 66 47 12 8 31 23 42 33 12 9 24 17 28
17 4 0 18 9 31 20 35 29 40 32 89 65 25 17 50 34 55 38 19 15 177 117 182 117
2 0 9 5 16 10 29 24 136 90 146 90 6 0 11 4 11 9 0 6 42 34 93 64 50 30 117
71 147 91 30 20 62 41 70 46 8 5 43 28 76 50 34 22 67 40 73 40 6 0 11 5 11
10 0 6 10 14 23 19 12 5 39 21 60 35 21 14 40 26 43 26 4 0 188 108 242 142
43 27 68 41 129 73 32 16 65 34 73 41 8 7 47 29 85 50 39 21 88 48 110 61 22
13 54 30 70 38 17 9 44 24 61 34 17 11 85 47 150 81 65 33 123 65 129 69 5 5
21 12 35 16 13 4 30 14 38 21 7 8 22 14 33 14 10 0 19 4 19 10 0 5 12 13 28
16 15 4 32 11 38 15 22 18 105 59 118 59 8 0 19 7 26 15 7 8 20 15 30 15 10 0
23 6 29 14 7 8 26 18 42 21 16 4 29 10 29 15 0 4 12 13 28 19 15 6 34 15 42
20 24 14 106 51 114 51 4 0 14 7 22 15 9 8 24 15 33 15 10 0 24 7 31 15 7 8
20 15 30 15 10 0 23 6 29 14 7 8 23 17 38 21 14 3 32 13 40 20 8 8 23 15 32
15 10 0 24 7 31 15 7 8 20 15 30 15 10 0 23 7 30 15 7 8 17 15 22 15 6 0 61
25 123 55 62 30 120 55 129 55 9 0 16 4 16 9 0 5 10 13 23 16 12 4 36 12 52
20 17 7 53 23 80 35 64 28 91 40 190 85 104 48 138 63 177 79 73 31 134 58
160 72 14 8 35 14 46 14 11 0 25 7 32 15 7 8 20 15 29 15 10 0 26 7 37 15 10
8 25 15 32 15 14 0 89 31 135 55 16 8 36 15 46 15 9 0 26 7 37 15 10 8 26 15
34 15 8 0 32 9 53 20 20 11 43 20 51 20 8 0 27 6 43 14 61 30 121 56 130 56 6
0 24 7 39 15 16 8 36 15 45 15 9 0 22 7 29 15 7 8 22 15 34 15 12 0 39 9 61
20 22 11 46 20 55 20 8 0 24 7 34 15 11 8 28 15 37 15 10 0 30 6 46 14 49 25
131 56 150 56 10 0 27 7 37 15 11 8 29 15 41 15 12 0 26 5 32 11 6 6 26 14 44
19 19 5 66 21 104 35 39 15 84 29 100 32 17 3 35 10 42 15 7 6 27 14 45 18 47
12 128 40 165 56 17 8 38 14 46 14 9 0 28 6 44 14 15 8 62 24 103 36 41 12 89
28 107 36 17 8 42 14 55 14 12 0 32 7 42 15 11 8 31 15 46 15 14 0 35 7 47 15
12 8 43 18 70 21 26 4 53 11 59 15 6 5 31 13 55 18 24 5 58 14 74 19 33 12 97
28 165 43 25 5 54 15 64 20 11 6 42 15 70 19 28 4 65 12 81 18 34 12 92 27
180 47 93 22 147 36 180 47 17 6 58 14 92 19 35 4 71 12 80 17 10 6 43 13 73
17 30 4 61 12 67 17 7 6 39 14 70 18 62 9 110 20 213 51 36 11 80 19 98 19 18
0 41 4 51 10 10 5 49 13 87 19 38 5 83 13 99 19 17 6 59 16 95 22 127 21 205
38 233 49 16 6 45 11 66 11 21 0 58 7 81 15 23 8 59 15 79 15 20 0 52 5 71 11
19 6 76 17 125 25 174 27 220 36 265 50 25 8 65 14 90 14 25 1 65 5 90 11 25
5 86 16 135 23 50 8 108 19 130 25 22 6 65 11 95 11 30 0 77 7 104 15 27 8 69
15 94 15 24 0 70 7 101 15 31 8 106 19 166 24 61 6 133 15 160 20 28 5 77 10
110 11 33 0 85 7 115 15 30 8 85 15 121 15 37 0 104 7 150 15 46 8 140 19 209
24 69 6 148 15 175 20 28 6 106 10 175 11 69 1 148 5 175 11 28 5 205 13 395
19 190 5 406 14 481 20 174 13 940 13 1044 0 44 -5 269 -15 500 -20 231 -6
452 -15 490 -20 39 -5 135 -10 215 -10 80 -1 170 -6 200 -11 30 -5 132 -13
225 -19 94 -6 199 -15 235 -21 36 -6 135 -14 220 -19 85 -5 171 -13 190 -19
19 -6 73 -11 120 -12 47 0 110 -5 140 -10 30 -5 116 -14 190 -19 75 -5 165
-16 200 -24 36 -9 90 -16 120 -16 30 0 80 -7 110 -15 30 -8 83 -15 117 -15 34
0 82 -6 105 -14 24 -8 79 -17 123 -21 43 -3 106 -13 140 -20 33 -8 84 -15 113
-15 29 0 69 -7 89 -15 19 -8 55 -15 79 -15 24 0 63 -6 86 -14 24 -8 71 -17
106 -20 34 -4 81 -14 103 -22 23 -7 57 -14 76 -14 18 0 50 -7 70 -15 19 -8 53
-15 74 -15 21 0 50 -5 66 -11 15 -6 57 -17 93 -24 154 -30 187 -37 215 -47 17
-6 57 -14 90 -19 32 -5 64 -14 69 -19 6 -6 24 -10 41 -10 27 0 81 -14 216 -56
26 -8 59 -14 73 -14 15 0 37 -5 49 -12 20 -11 56 -20 197 -49 30 -6 67 -17 82
-25 14 -8 39 -14 55 -14 15 0 39 -6 53 -13 15 -8 46 -17 71 -20 25 -3 58 -13
74 -21 17 -9 41 -16 55 -16 14 -1 36 -7 50 -15 14 -8 38 -14 53 -15 16 0 43
-6 60 -14 18 -8 66 -24 107 -36 41 -12 90 -28 108 -36 18 -8 40 -14 50 -14 9
0 30 -7 46 -15 15 -8 37 -15 48 -15 11 0 40 -8 66 -18 79 -32 115 -44 154 -52
21 -4 43 -12 50 -17 7 -6 28 -14 46 -18 18 -4 45 -13 60 -21 15 -8 39 -14 53
-14 14 0 34 -7 45 -15 10 -8 30 -15 44 -15 14 0 34 -6 45 -14 11 -7 38 -16 59
-20 22 -4 49 -14 60 -22 11 -8 32 -14 46 -14 15 0 35 -7 46 -15 10 -8 32 -15
47 -15 16 0 41 -6 55 -14 15 -8 61 -24 102 -36 41 -12 88 -28 103 -36 16 -8
38 -14 48 -14 11 0 30 -6 42 -12 12 -7 42 -18 67 -24 25 -7 70 -22 100 -34 30
-12 72 -26 93 -31 21 -5 45 -13 55 -18 31 -16 127 -51 139 -51 6 0 25 -7 42
-15 17 -8 45 -22 62 -30 17 -8 38 -15 47 -15 10 0 34 -9 55 -20 20 -11 45 -20
55 -20 10 0 27 -7 38 -15 10 -8 28 -15 40 -15 11 0 29 -7 40 -15 10 -8 26 -15
34 -15 8 0 33 -9 55 -20 22 -11 47 -19 56 -20 9 0 22 -7 29 -15 7 -8 22 -15
34 -15 12 0 31 -7 42 -15 10 -8 25 -15 33 -15 8 0 35 -9 60 -21 53 -24 88 -39
151 -65 25 -9 64 -26 87 -36 23 -10 48 -18 56 -18 8 0 20 -7 27 -15 7 -8 20
-15 29 -15 10 0 26 -7 37 -15 10 -8 25 -15 33 -15 8 0 32 -9 55 -19 23 -11 70
-33 106 -49 36 -17 90 -40 120 -52 30 -12 62 -26 70 -31 8 -5 22 -12 30 -15 8
-3 29 -12 45 -19 17 -8 41 -19 55 -25 14 -5 33 -14 43 -20 9 -5 25 -15 35 -20
9 -6 24 -13 32 -16 17 -6 158 -73 180 -85 8 -4 40 -20 70 -34 30 -14 62 -30
70 -35 13 -8 75 -39 325 -166 28 -14 57 -29 65 -34 8 -5 53 -28 100 -52 47
-23 87 -46 88 -50 2 -5 7 -8 12 -8 13 0 51 -18 85 -40 17 -10 57 -33 90 -50
33 -17 74 -40 90 -50 17 -10 55 -31 85 -46 30 -16 62 -33 70 -40 8 -6 47 -29
85 -49 39 -21 88 -49 110 -62 22 -12 51 -28 65 -35 14 -7 27 -15 30 -19 3 -4
28 -18 55 -33 28 -15 59 -32 70 -39 45 -27 121 -73 140 -85 11 -7 32 -17 47
-23 14 -6 29 -17 32 -25 3 -8 14 -14 25 -14 11 0 22 -4 26 -9 3 -6 31 -25 61
-43 31 -18 68 -41 83 -50 14 -9 46 -27 70 -39 25 -12 52 -30 61 -38 9 -9 37
-27 63 -41 26 -13 47 -28 47 -32 0 -5 6 -8 14 -8 7 0 34 -16 59 -35 25 -19 50
-35 54 -35 5 0 18 -7 28 -15 11 -8 47 -32 80 -53 33 -22 114 -74 180 -118 66
-43 124 -81 130 -84 14 -7 69 -44 75 -50 6 -6 216 -148 295 -200 60 -38 137
-92 145 -100 3 -3 25 -19 50 -35 25 -17 50 -34 56 -40 6 -5 22 -17 34 -25 12
-8 44 -31 70 -50 26 -19 58 -42 70 -50 12 -8 33 -23 45 -32 13 -10 26 -18 29
-18 3 0 14 -7 24 -16 9 -8 60 -47 112 -84 52 -38 102 -75 110 -83 8 -7 31 -24
50 -37 42 -29 56 -40 81 -62 10 -10 21 -18 24 -18 3 0 13 -7 23 -15 16 -15
134 -102 182 -135 12 -8 36 -28 53 -43 18 -16 53 -42 80 -59 26 -17 47 -35 47
-40 0 -4 6 -8 13 -8 8 0 22 -10 33 -21 10 -12 35 -32 54 -45 19 -12 54 -40 77
-61 23 -21 54 -47 69 -58 15 -11 32 -24 38 -30 6 -5 54 -44 106 -86 52 -42
109 -90 127 -105 63 -58 90 -81 163 -139 41 -33 80 -65 85 -71 6 -5 51 -44
100 -85 50 -40 92 -77 95 -80 3 -4 34 -29 69 -57 67 -54 164 -138 216 -187 17
-16 53 -50 81 -74 43 -39 262 -243 349 -326 17 -16 53 -50 81 -74 160 -144
696 -672 835 -822 188 -204 204 -222 241 -261 68 -73 185 -203 214 -238 16
-19 36 -42 44 -50 8 -9 29 -34 45 -54 55 -70 106 -130 163 -195 31 -35 75 -87
97 -115 35 -45 76 -93 110 -130 6 -6 38 -45 70 -86 33 -41 71 -86 85 -100 14
-14 46 -52 70 -85 24 -33 48 -64 52 -70 4 -5 78 -102 164 -215 86 -113 171
-221 188 -241 17 -21 54 -69 81 -108 28 -39 73 -102 100 -140 28 -38 57 -79
65 -91 8 -13 38 -52 65 -89 28 -36 82 -111 120 -166 85 -125 112 -162 174
-250 27 -38 83 -119 125 -180 42 -60 101 -144 131 -185 31 -41 58 -82 62 -90
3 -8 21 -34 40 -57 18 -23 33 -44 33 -47 0 -3 10 -20 23 -38 12 -19 42 -67 67
-107 25 -40 53 -82 63 -93 9 -12 17 -25 17 -30 0 -5 16 -30 34 -54 19 -25 44
-64 56 -87 12 -23 29 -54 38 -69 9 -14 39 -62 65 -105 27 -43 66 -105 87 -138
22 -33 43 -66 47 -74 3 -8 21 -37 40 -65 18 -28 33 -56 33 -62 0 -7 7 -14 15
-18 8 -3 15 -12 15 -19 0 -8 14 -33 30 -56 17 -23 35 -52 41 -64 5 -12 18 -35
28 -52 21 -32 42 -70 85 -149 14 -27 30 -54 35 -60 8 -10 32 -54 97 -175 13
-24 28 -49 33 -55 5 -6 12 -23 16 -39 4 -15 11 -27 15 -27 4 0 13 -12 19 -27
6 -16 36 -73 65 -128 30 -55 134 -260 231 -455 97 -195 181 -362 186 -370 5
-8 12 -22 15 -30 10 -25 76 -164 85 -180 5 -8 12 -22 15 -30 3 -8 10 -22 15
-30 5 -8 12 -22 15 -30 6 -16 14 -34 69 -155 59 -130 77 -169 87 -185 4 -8 11
-22 14 -30 10 -25 76 -164 85 -180 5 -8 12 -22 15 -30 6 -16 25 -60 54 -125
10 -22 26 -58 35 -80 10 -22 22 -47 27 -55 4 -8 11 -22 14 -30 3 -8 14 -33 25
-56 10 -23 19 -47 19 -55 0 -8 7 -23 15 -33 8 -11 15 -27 15 -37 0 -9 7 -22
15 -29 8 -7 15 -19 15 -28 0 -14 22 -66 56 -135 8 -16 14 -37 14 -47 0 -9 7
-23 15 -30 8 -7 15 -21 15 -31 0 -11 9 -36 20 -56 11 -21 20 -45 20 -54 0 -9
6 -22 14 -28 8 -6 16 -24 19 -39 6 -31 31 -102 52 -149 8 -17 15 -37 15 -45 0
-7 7 -22 15 -32 8 -11 15 -29 15 -40 0 -12 7 -30 15 -40 8 -11 15 -27 15 -35
0 -9 7 -29 15 -44 8 -15 17 -43 21 -62 3 -19 12 -39 20 -46 8 -6 14 -23 14
-38 0 -15 5 -32 11 -38 6 -6 14 -26 19 -44 13 -49 41 -130 56 -161 8 -14 14
-37 14 -50 0 -13 7 -33 15 -44 8 -10 15 -28 15 -39 0 -11 9 -38 20 -60 11 -22
20 -49 20 -60 0 -11 7 -29 15 -39 8 -11 15 -31 15 -46 0 -14 6 -34 14 -45 7
-11 16 -37 20 -57 4 -20 13 -50 21 -65 8 -15 15 -39 15 -53 0 -15 5 -31 11
-37 6 -6 15 -29 20 -50 9 -45 35 -125 55 -170 8 -17 14 -44 14 -61 0 -16 7
-35 15 -42 8 -7 15 -27 15 -44 0 -18 7 -41 15 -52 8 -10 15 -29 15 -41 0 -12
9 -45 20 -73 11 -28 20 -63 20 -78 0 -15 7 -36 15 -46 8 -11 15 -34 15 -51 0
-17 6 -39 14 -50 7 -11 17 -44 21 -72 4 -29 11 -55 15 -58 5 -3 12 -27 16 -53
4 -26 13 -59 20 -74 8 -15 14 -41 14 -58 0 -17 6 -43 14 -58 7 -15 16 -49 20
-76 3 -27 11 -55 16 -61 6 -7 13 -37 17 -66 3 -30 12 -63 19 -74 8 -11 14 -34
14 -52 0 -18 6 -47 14 -65 13 -31 20 -58 47 -190 6 -29 15 -66 21 -83 6 -16
14 -57 17 -90 4 -33 12 -69 17 -80 6 -11 14 -47 18 -79 4 -33 11 -65 17 -72 6
-7 13 -42 16 -76 3 -35 12 -75 19 -90 8 -15 14 -46 14 -70 1 -24 7 -54 15 -68
8 -14 15 -45 15 -70 1 -25 7 -63 15 -85 8 -22 18 -69 21 -105 4 -36 13 -77 20
-92 8 -15 14 -50 14 -78 0 -28 6 -65 13 -83 8 -18 17 -66 21 -107 4 -41 12
-81 18 -88 6 -6 13 -54 15 -105 3 -50 11 -109 19 -130 8 -20 14 -62 14 -91 0
-29 6 -69 14 -87 7 -19 16 -74 20 -122 3 -49 11 -98 17 -109 6 -10 13 -61 16
-111 3 -51 10 -98 16 -105 6 -7 14 -59 17 -115 4 -56 12 -127 18 -157 6 -30
16 -102 21 -160 5 -58 14 -125 20 -150 6 -25 10 -86 11 -137 0 -51 7 -118 15
-150 9 -34 15 -102 15 -168 0 -60 5 -126 11 -145 6 -19 15 -141 19 -270 5
-129 14 -264 20 -300 6 -36 15 -191 20 -345 5 -154 14 -307 19 -340 5 -33 10
-154 10 -270 1 -129 7 -247 16 -305 8 -52 15 -120 15 -150 0 -30 4 -60 8 -67
5 -9 177 -9 717 -1 918 14 1527 15 2610 4 l880 -9 19 21 c20 23 19 68 -4 237
-5 39 -9 153 -10 255 0 102 -5 212 -10 245 -6 33 -15 184 -20 335 -5 151 -14
318 -20 370 -6 52 -15 201 -20 330 -5 129 -14 267 -19 305 -6 39 -10 124 -11
190 0 66 -7 149 -15 185 -8 36 -14 102 -15 146 0 45 -7 121 -16 170 -8 49 -19
141 -23 204 -5 63 -14 133 -20 155 -6 22 -11 76 -11 120 0 44 -7 102 -15 129
-8 27 -15 81 -16 120 0 39 -5 94 -10 121 -5 28 -14 95 -20 150 -6 55 -17 122
-25 149 -8 26 -14 75 -14 107 0 32 -6 76 -14 96 -8 21 -17 72 -19 115 -3 42
-10 85 -15 95 -6 11 -14 59 -17 109 -4 49 -13 106 -21 127 -8 20 -14 60 -14
87 0 27 -5 61 -11 77 -6 15 -15 65 -20 111 -5 46 -13 91 -19 102 -5 10 -13 51
-16 92 -4 40 -11 79 -17 85 -5 7 -11 43 -14 80 -3 38 -11 85 -19 106 -8 20
-14 55 -14 77 0 22 -6 59 -14 82 -8 24 -18 72 -22 107 -4 36 -13 76 -20 90 -8
14 -14 43 -14 64 0 21 -7 54 -15 74 -8 19 -15 50 -15 69 0 18 -6 53 -14 76 -8
24 -18 67 -22 97 -4 30 -13 66 -20 80 -8 14 -14 46 -14 71 -1 25 -7 56 -15 70
-8 14 -15 43 -15 65 -1 22 -7 58 -15 80 -8 22 -18 65 -22 94 -3 30 -12 66 -20
80 -7 15 -13 42 -13 61 -1 19 -7 46 -15 60 -8 14 -14 41 -15 60 0 19 -7 48
-15 63 -8 16 -18 51 -21 79 -4 29 -13 63 -20 77 -8 14 -14 42 -14 62 0 19 -7
44 -15 55 -8 10 -15 30 -15 44 0 14 -9 51 -20 83 -11 31 -20 65 -20 76 0 10
-7 32 -15 47 -8 16 -15 43 -15 59 -1 17 -7 41 -15 55 -8 14 -14 39 -15 55 0
17 -6 42 -14 57 -8 14 -17 45 -21 68 -4 23 -13 54 -21 68 -8 15 -14 39 -14 53
0 14 -7 34 -15 45 -8 10 -15 32 -15 47 0 15 -7 41 -15 56 -8 16 -17 48 -21 72
-4 24 -13 53 -20 64 -8 11 -14 33 -14 50 0 16 -7 39 -15 49 -8 11 -15 29 -15
40 0 12 -7 34 -15 49 -8 15 -17 44 -21 64 -4 20 -13 48 -20 62 -8 14 -14 36
-14 49 0 13 -5 33 -12 45 -6 12 -15 38 -19 57 -11 50 -38 130 -55 162 -8 14
-14 37 -14 50 -1 12 -7 34 -15 48 -8 14 -14 34 -15 45 0 11 -6 32 -14 46 -7
14 -16 43 -20 64 -4 22 -14 48 -22 59 -8 11 -14 32 -14 46 0 14 -7 34 -15 44
-8 11 -15 29 -15 40 0 12 -6 33 -14 48 -8 15 -17 41 -21 58 -4 17 -13 43 -21
58 -8 15 -14 39 -14 53 0 15 -7 32 -15 39 -8 7 -15 22 -15 34 0 11 -6 33 -14
48 -8 15 -17 42 -21 60 -4 18 -14 42 -21 53 -8 11 -14 29 -14 40 0 12 -7 30
-15 41 -8 10 -15 28 -15 39 0 11 -6 29 -14 40 -7 11 -17 36 -21 55 -4 19 -14
44 -21 55 -8 11 -14 29 -14 40 0 12 -4 25 -9 30 -10 10 -34 71 -53 135 -6 19
-17 44 -24 55 -8 11 -14 29 -14 41 0 12 -7 27 -15 34 -8 7 -15 20 -15 29 0 14
-25 86 -56 156 -15 36 -52 122 -64 150 -5 11 -18 41 -29 67 -12 26 -21 51 -21
57 0 5 -6 22 -14 38 -8 15 -24 51 -36 78 -12 28 -29 66 -38 85 -8 19 -21 49
-27 65 -18 45 -38 87 -99 218 -31 65 -56 122 -56 127 0 8 -20 52 -42 90 -4 8
-11 22 -14 30 -11 31 -137 299 -160 342 -8 14 -14 33 -14 41 0 9 -4 17 -8 19
-8 3 -62 110 -62 123 0 4 -7 13 -15 21 -8 9 -15 24 -15 33 0 10 -7 24 -15 31
-8 7 -15 19 -15 26 0 12 -45 109 -81 174 -25 46 -59 120 -59 129 0 6 -4 11
-10 11 -5 0 -10 6 -10 12 0 13 -320 656 -390 783 -21 39 -53 97 -70 130 -18
33 -47 87 -65 120 -19 33 -41 74 -50 90 -8 17 -24 44 -35 60 -10 17 -26 44
-34 60 -8 17 -31 57 -50 90 -20 33 -40 71 -46 85 -6 13 -14 27 -18 30 -4 3
-20 30 -35 60 -47 91 -92 169 -105 182 -7 7 -12 20 -12 29 0 10 -3 19 -8 21
-4 2 -27 37 -50 78 -50 86 -48 84 -101 172 -23 36 -41 71 -41 77 0 6 -3 11 -7
11 -5 0 -21 25 -38 55 -16 30 -33 55 -36 55 -4 0 -11 9 -14 20 -6 20 -60 107
-90 145 -8 10 -15 23 -15 28 0 4 -16 29 -35 54 -19 25 -35 52 -35 59 0 7 -4
14 -8 16 -4 2 -21 26 -37 53 -15 28 -31 52 -35 55 -4 3 -20 27 -36 53 -16 27
-36 59 -44 72 -8 13 -27 43 -42 67 -23 39 -80 127 -108 168 -61 90 -120 184
-120 190 0 5 -3 10 -8 12 -4 2 -43 57 -87 123 -43 66 -82 122 -85 125 -12 12
-90 131 -90 139 0 5 -3 11 -7 13 -9 3 -28 30 -118 163 -34 49 -78 114 -98 143
-20 28 -53 76 -74 105 -20 28 -50 71 -67 93 -17 23 -38 52 -46 64 -19 27 -134
186 -160 220 -297 391 -718 932 -740 950 -3 3 -33 39 -65 80 -33 41 -63 77
-66 80 -6 5 -24 25 -134 155 -27 32 -57 65 -65 74 -9 9 -49 57 -90 106 -41 50
-79 95 -85 101 -10 11 -66 76 -153 178 -24 28 -60 69 -80 91 -20 22 -86 96
-147 165 -112 128 -201 222 -406 435 -64 66 -156 162 -205 214 -109 115 -548
555 -630 631 -92 85 -334 312 -369 345 -17 17 -72 66 -121 110 -109 98 -167
151 -208 190 -17 17 -88 80 -156 140 -69 61 -132 117 -140 125 -9 8 -47 42
-84 75 -38 33 -76 67 -84 75 -9 8 -30 26 -47 40 -17 14 -60 50 -96 81 -130
115 -255 224 -278 244 -13 11 -47 40 -75 64 -28 24 -62 53 -76 65 -34 29 -206
167 -300 241 -42 34 -84 67 -93 75 -20 18 -30 26 -82 64 -22 17 -42 33 -45 36
-7 8 -101 81 -130 100 -12 8 -28 20 -34 26 -15 14 -176 137 -326 249 -66 49
-120 93 -120 97 0 5 -4 8 -10 8 -5 0 -49 30 -98 68 -49 37 -100 74 -112 82
-13 8 -30 23 -39 33 -8 9 -19 17 -24 17 -5 0 -19 8 -32 18 -12 9 -33 24 -45
32 -12 8 -44 31 -70 50 -26 19 -58 42 -70 50 -60 41 -185 136 -188 143 -2 4
-10 7 -18 7 -8 0 -17 7 -20 15 -4 8 -10 15 -15 15 -5 0 -33 17 -62 37 -28 20
-92 65 -142 98 -49 34 -118 82 -153 106 -79 55 -171 116 -197 129 -11 6 -47
28 -80 50 -33 21 -94 60 -135 85 -41 25 -102 64 -135 85 -33 22 -69 44 -80 50
-11 6 -32 18 -47 28 -41 27 -188 115 -217 131 -14 8 -28 17 -31 21 -3 4 -25
18 -50 31 -25 14 -65 38 -90 54 -65 43 -82 53 -110 65 -13 6 -27 14 -30 18 -3
4 -16 13 -30 20 -14 7 -38 21 -55 32 -40 26 -74 45 -110 64 -16 9 -43 25 -60
36 -16 10 -43 26 -60 34 -16 9 -57 31 -90 51 -33 19 -71 40 -85 46 -13 5 -27
13 -30 17 -3 4 -30 20 -60 35 -30 16 -68 37 -85 47 -16 11 -43 26 -60 35 -16
8 -43 24 -60 34 -16 11 -55 32 -85 47 -30 16 -73 40 -95 53 -22 14 -60 36 -85
50 -25 13 -63 34 -85 47 -22 12 -65 35 -95 51 -30 15 -57 31 -60 34 -3 3 -17
12 -32 20 -170 87 -290 149 -373 194 -208 111 -326 173 -344 179 -9 3 -24 10
-33 16 -34 19 -53 29 -108 55 -30 14 -62 30 -70 35 -28 17 -95 48 -117 55 -13
3 -23 11 -23 16 0 5 -6 9 -13 9 -7 0 -29 9 -50 20 -20 11 -43 20 -51 20 -7 0
-19 7 -26 15 -7 8 -21 15 -31 15 -9 0 -24 7 -33 15 -8 8 -20 15 -27 15 -11 0
-88 33 -119 51 -8 5 -22 12 -30 15 -36 13 -123 52 -221 98 -41 20 -78 36 -83
36 -10 0 -212 90 -279 125 -16 8 -37 15 -47 15 -9 0 -23 7 -30 15 -7 8 -20 15
-29 15 -10 0 -26 7 -37 15 -10 8 -25 15 -33 15 -13 0 -89 32 -121 51 -8 5 -22
12 -30 15 -8 3 -28 12 -43 20 -16 7 -34 14 -40 14 -7 1 -30 9 -52 20 -22 11
-45 19 -52 20 -6 0 -25 7 -42 15 -17 8 -45 22 -62 30 -17 8 -35 15 -41 15 -10
0 -69 25 -131 56 -16 8 -33 14 -38 14 -6 0 -29 8 -52 18 -23 10 -62 27 -87 36
-56 23 -100 42 -142 61 -18 8 -46 17 -63 21 -16 4 -35 10 -40 15 -11 8 -81 35
-135 51 -19 5 -39 14 -44 19 -6 5 -17 9 -25 9 -9 1 -34 9 -56 20 -22 11 -47
19 -56 20 -8 0 -24 7 -35 15 -10 8 -28 15 -39 15 -11 0 -29 6 -40 14 -11 7
-36 17 -55 21 -19 4 -41 11 -50 16 -19 11 -95 38 -138 49 -18 4 -38 12 -45 18
-7 5 -27 13 -45 17 -18 4 -45 13 -60 21 -15 8 -36 14 -48 14 -11 0 -29 7 -40
15 -10 8 -30 15 -42 15 -13 0 -38 6 -55 14 -38 16 -118 44 -166 56 -18 5 -38
13 -44 19 -6 6 -23 11 -37 11 -14 0 -35 7 -46 15 -10 8 -26 14 -34 15 -22 0
-150 39 -183 56 -16 8 -38 14 -50 14 -12 0 -34 6 -48 14 -14 7 -43 16 -65 20
-21 4 -51 14 -66 22 -15 8 -40 14 -56 14 -15 0 -37 7 -48 15 -10 8 -32 15 -47
15 -16 0 -43 6 -60 14 -18 8 -52 19 -77 25 -83 19 -135 33 -168 47 -18 8 -45
14 -60 14 -15 0 -40 7 -56 15 -15 8 -38 15 -50 15 -11 1 -39 8 -61 16 -22 8
-60 19 -85 23 -25 5 -58 14 -75 19 -34 12 -92 27 -180 47 -92 21 -147 36 -180
47 -16 5 -51 14 -77 18 -26 5 -55 13 -65 18 -10 5 -41 12 -70 16 -28 4 -68 13
-87 21 -19 8 -51 15 -71 15 -20 0 -52 7 -72 15 -19 8 -50 15 -69 15 -18 0 -45
5 -61 12 -26 11 -72 21 -218 48 -33 6 -82 17 -110 25 -27 8 -74 16 -104 19
-29 3 -58 9 -65 14 -6 5 -42 12 -80 16 -38 4 -77 11 -88 17 -10 5 -46 14 -81
19 -34 5 -80 13 -102 19 -55 14 -135 29 -235 46 -47 8 -114 19 -150 25 -36 6
-83 15 -105 21 -22 5 -77 14 -122 19 -46 5 -91 14 -100 19 -10 5 -54 14 -98
20 -87 11 -179 26 -265 43 -30 6 -90 14 -132 18 -42 4 -82 12 -90 16 -7 5 -53
14 -103 20 -175 24 -251 35 -300 45 -27 5 -89 14 -138 19 -48 5 -95 13 -105
18 -9 5 -63 12 -119 16 -56 3 -114 11 -130 17 -15 5 -80 14 -144 18 -64 5
-122 12 -129 16 -7 4 -76 11 -154 15 -77 5 -161 13 -186 19 -25 6 -121 15
-215 21 -93 6 -201 15 -240 20 -38 5 -121 9 -184 9 -62 1 -159 7 -215 15 -58
8 -234 17 -416 20 -173 4 -337 11 -365 16 -63 11 -2156 11 -2210 -1z"/>
<path d="M32310 47769 c-47 -4 -148 -12 -225 -18 -78 -6 -163 -15 -190 -20
-28 -5 -111 -12 -185 -16 -74 -4 -175 -13 -225 -21 -49 -8 -121 -14 -160 -14
-38 -1 -106 -7 -150 -15 -44 -8 -107 -15 -140 -16 -33 0 -85 -5 -115 -10 -30
-5 -104 -14 -165 -19 -60 -6 -143 -17 -183 -25 -40 -8 -101 -15 -135 -15 -34
0 -87 -7 -117 -15 -30 -8 -80 -15 -110 -15 -30 -1 -75 -5 -100 -11 -25 -5 -79
-14 -120 -20 -41 -6 -100 -17 -131 -25 -30 -8 -75 -14 -99 -14 -24 0 -69 -6
-99 -14 -54 -14 -110 -24 -256 -47 -38 -6 -92 -17 -119 -25 -26 -8 -65 -14
-85 -14 -20 0 -56 -6 -81 -14 -43 -14 -75 -21 -225 -51 -83 -16 -143 -31 -206
-51 -26 -8 -58 -14 -72 -14 -14 0 -38 -5 -54 -11 -15 -7 -57 -17 -93 -24 -74
-14 -149 -32 -199 -47 -19 -6 -60 -16 -90 -23 -97 -23 -195 -49 -301 -80 -25
-8 -64 -17 -87 -20 -24 -4 -45 -10 -48 -15 -3 -4 -22 -11 -42 -15 -21 -3 -58
-13 -83 -20 -45 -14 -92 -27 -230 -65 -134 -37 -184 -52 -215 -62 -16 -5 -49
-14 -72 -19 -23 -4 -50 -13 -60 -18 -19 -10 -99 -37 -148 -50 -17 -4 -40 -13
-52 -19 -12 -7 -30 -12 -40 -12 -10 0 -30 -6 -45 -14 -15 -8 -42 -17 -60 -21
-18 -4 -38 -12 -45 -17 -7 -6 -27 -14 -45 -18 -38 -10 -114 -36 -143 -50 -24
-12 -99 -38 -140 -50 -44 -13 -116 -39 -152 -55 -17 -8 -35 -15 -41 -15 -5 0
-40 -13 -78 -29 -38 -16 -96 -39 -129 -52 -33 -12 -74 -28 -92 -35 -17 -8 -36
-14 -42 -14 -6 0 -25 -6 -43 -14 -36 -16 -255 -107 -333 -138 -73 -30 -118
-50 -135 -60 -8 -4 -22 -11 -30 -14 -8 -3 -33 -14 -56 -25 -23 -10 -46 -19
-52 -19 -6 0 -23 -6 -39 -14 -15 -7 -45 -21 -66 -30 -53 -22 -91 -39 -177 -79
-41 -20 -97 -45 -125 -57 -61 -26 -293 -142 -430 -215 -55 -29 -147 -78 -205
-107 -95 -49 -268 -141 -360 -191 -19 -10 -48 -27 -65 -37 -16 -10 -57 -33
-90 -50 -33 -17 -67 -35 -75 -40 -8 -5 -55 -32 -105 -60 -49 -28 -97 -55 -105
-61 -8 -5 -25 -13 -37 -19 -12 -5 -41 -22 -65 -37 -59 -38 -78 -49 -113 -67
-34 -18 -68 -38 -75 -46 -3 -3 -43 -28 -88 -55 -46 -28 -96 -58 -110 -67 -15
-10 -34 -21 -42 -25 -8 -4 -35 -21 -60 -37 -26 -17 -55 -36 -65 -43 -20 -13
-104 -64 -140 -86 -11 -7 -24 -18 -28 -24 -4 -7 -12 -13 -17 -13 -6 0 -67 -38
-136 -85 -69 -47 -128 -85 -131 -85 -3 0 -69 -47 -108 -78 -5 -4 -41 -28 -80
-54 -66 -44 -172 -117 -295 -203 -58 -41 -91 -64 -206 -148 -40 -29 -82 -59
-94 -67 -34 -22 -478 -360 -550 -417 -50 -41 -214 -177 -220 -183 -3 -3 -21
-18 -40 -34 -19 -15 -53 -45 -75 -65 -22 -20 -105 -95 -185 -166 -80 -72 -152
-137 -160 -145 -9 -8 -41 -37 -71 -64 -51 -46 -81 -73 -259 -241 -276 -259
-696 -671 -880 -865 -29 -30 -91 -95 -139 -145 -80 -83 -178 -190 -327 -355
-61 -67 -96 -108 -174 -200 -25 -29 -59 -69 -76 -89 -17 -20 -73 -90 -124
-156 -52 -66 -97 -122 -100 -125 -3 -3 -35 -41 -70 -85 -35 -44 -67 -82 -70
-85 -3 -3 -39 -48 -80 -100 -41 -52 -87 -108 -102 -125 -15 -16 -28 -33 -28
-36 0 -3 -8 -15 -17 -27 -10 -11 -25 -30 -33 -42 -8 -13 -55 -75 -104 -138
-49 -64 -105 -140 -125 -168 -20 -28 -46 -64 -58 -80 -53 -68 -141 -188 -183
-249 -25 -36 -61 -88 -80 -115 -19 -27 -51 -72 -70 -100 -19 -28 -41 -58 -48
-68 -17 -24 -90 -131 -158 -232 -31 -47 -66 -98 -77 -115 -63 -90 -110 -163
-118 -182 -5 -13 -13 -23 -19 -23 -5 0 -10 -5 -10 -10 0 -6 -15 -32 -32 -58
-36 -52 -40 -59 -90 -141 -18 -29 -41 -65 -50 -80 -10 -14 -21 -33 -25 -41 -4
-8 -19 -33 -34 -55 -14 -22 -37 -60 -51 -85 -13 -25 -36 -64 -51 -88 -15 -24
-32 -53 -38 -65 -5 -12 -18 -35 -28 -52 -11 -16 -32 -55 -48 -85 -15 -30 -40
-73 -54 -95 -15 -22 -39 -65 -53 -95 -15 -30 -45 -86 -66 -125 -22 -38 -44
-79 -50 -90 -6 -11 -28 -51 -49 -90 -60 -108 -351 -690 -351 -702 0 -6 -6 -16
-14 -22 -8 -7 -17 -27 -20 -46 -4 -19 -11 -35 -16 -35 -6 0 -10 -5 -10 -11 0
-12 -33 -89 -51 -119 -5 -8 -12 -22 -15 -30 -3 -8 -14 -33 -25 -56 -10 -23
-19 -48 -19 -56 0 -9 -7 -21 -15 -28 -8 -7 -15 -21 -15 -30 0 -10 -6 -31 -14
-47 -8 -15 -24 -50 -36 -78 -12 -27 -28 -62 -36 -77 -8 -14 -14 -35 -14 -46 0
-11 -7 -25 -15 -32 -8 -7 -15 -20 -15 -29 0 -10 -7 -26 -15 -37 -8 -10 -15
-25 -15 -33 0 -13 -23 -68 -56 -134 -8 -16 -14 -36 -14 -46 0 -9 -7 -26 -15
-37 -8 -10 -15 -25 -15 -33 0 -13 -23 -68 -56 -134 -8 -16 -14 -36 -14 -46 0
-9 -7 -26 -15 -37 -8 -10 -15 -26 -15 -34 0 -8 -9 -33 -20 -55 -11 -22 -19
-47 -20 -56 0 -8 -7 -24 -15 -35 -8 -10 -15 -28 -15 -40 0 -11 -7 -29 -15 -40
-8 -10 -15 -25 -15 -32 0 -8 -7 -28 -15 -45 -18 -41 -44 -113 -55 -155 -4 -18
-12 -38 -18 -45 -5 -7 -13 -28 -17 -47 -4 -19 -14 -44 -21 -55 -8 -11 -14 -29
-14 -40 0 -12 -7 -30 -15 -41 -8 -10 -15 -31 -15 -45 0 -14 -7 -34 -15 -45 -8
-10 -15 -27 -15 -37 0 -10 -8 -39 -18 -65 -29 -73 -43 -114 -53 -157 -6 -22
-14 -44 -20 -49 -5 -6 -9 -19 -9 -30 -1 -12 -8 -39 -16 -61 -9 -22 -19 -56
-24 -75 -4 -19 -13 -50 -19 -67 -6 -18 -16 -48 -22 -65 -6 -18 -15 -51 -21
-73 -5 -22 -16 -54 -24 -72 -8 -17 -14 -42 -14 -55 -1 -12 -7 -34 -15 -48 -8
-14 -14 -38 -15 -55 0 -16 -6 -42 -14 -57 -8 -14 -17 -46 -21 -70 -4 -24 -11
-48 -16 -54 -5 -6 -13 -31 -18 -55 -5 -24 -14 -57 -19 -74 -6 -16 -15 -50 -22
-75 -6 -25 -17 -70 -25 -100 -8 -30 -19 -75 -25 -100 -6 -25 -18 -67 -25 -95
-29 -112 -37 -143 -49 -200 -8 -33 -19 -73 -25 -88 -6 -16 -11 -43 -11 -60 -1
-18 -7 -43 -15 -57 -8 -14 -14 -44 -15 -68 0 -23 -6 -57 -14 -75 -7 -18 -16
-59 -21 -92 -4 -33 -11 -65 -17 -72 -5 -6 -12 -38 -15 -70 -3 -32 -12 -70 -19
-85 -8 -15 -14 -45 -14 -68 0 -22 -6 -55 -14 -73 -7 -18 -16 -59 -20 -92 -4
-33 -14 -82 -22 -109 -8 -27 -14 -70 -14 -95 -1 -25 -7 -57 -15 -71 -8 -14
-15 -50 -15 -80 -1 -30 -5 -75 -11 -100 -6 -25 -16 -88 -24 -140 -7 -52 -18
-111 -24 -130 -6 -19 -11 -60 -11 -90 0 -30 -7 -80 -15 -110 -8 -30 -15 -85
-15 -121 0 -36 -6 -88 -14 -115 -8 -27 -17 -92 -20 -144 -3 -53 -13 -127 -21
-165 -8 -39 -15 -117 -15 -175 0 -58 -7 -132 -15 -165 -8 -33 -15 -114 -15
-180 -1 -66 -6 -145 -11 -175 -5 -30 -14 -131 -19 -225 -5 -93 -15 -199 -21
-235 -6 -36 -15 -153 -20 -260 -5 -107 -13 -220 -18 -250 -5 -30 -10 -144 -10
-252 -1 -158 2 -199 13 -211 13 -12 302 -14 2103 -15 1148 0 2095 2 2105 4 32
9 33 11 57 541 5 128 14 250 20 270 5 21 13 130 16 243 4 113 13 241 21 285 8
44 14 123 14 175 0 52 7 126 15 165 8 38 15 99 15 135 1 36 5 85 11 110 5 25
14 83 20 130 6 47 17 120 25 163 8 42 14 97 14 121 0 24 7 63 15 86 8 23 15
63 15 89 0 25 5 64 11 86 6 22 17 81 24 130 6 50 17 103 24 118 6 16 11 47 11
70 1 23 7 60 15 82 8 22 15 57 15 77 0 21 6 57 14 80 8 24 19 68 25 98 5 30
14 68 20 83 6 16 11 43 11 61 0 18 7 41 15 52 8 10 15 33 15 51 0 18 6 52 14
75 8 24 18 65 22 92 4 27 13 61 20 75 8 14 14 37 14 51 0 14 7 38 15 54 8 15
15 42 15 60 0 17 7 44 16 61 8 16 18 50 21 75 3 25 12 57 19 72 8 15 14 42 14
61 0 18 7 42 15 53 8 10 15 30 15 44 0 14 9 43 20 65 11 22 20 51 20 65 0 14
7 34 15 44 8 11 15 32 15 46 0 14 7 35 15 46 8 10 15 30 15 44 0 14 7 35 15
46 8 12 19 39 24 60 12 51 30 102 47 137 8 16 14 35 14 44 0 8 6 29 14 46 8
18 20 51 26 74 6 23 15 45 20 48 6 3 10 16 10 29 0 12 7 31 15 42 8 10 15 29
15 42 0 12 9 40 20 62 11 22 20 47 20 57 0 10 7 27 15 37 8 11 15 29 15 41 0
12 7 30 15 41 8 10 15 25 15 32 0 8 7 28 15 45 15 35 41 103 56 154 5 18 14
35 19 38 6 4 10 16 10 27 0 19 19 66 56 141 8 16 14 35 14 44 0 8 7 27 15 41
20 38 55 119 55 130 0 4 14 35 30 67 17 32 30 63 30 68 0 6 9 28 19 51 11 23
33 70 49 106 17 36 55 117 86 182 31 64 56 121 56 127 0 6 4 11 10 11 5 0 13
12 16 28 4 15 12 34 19 42 7 8 15 27 19 43 3 15 11 27 16 27 6 0 10 8 11 18 0
9 14 40 30 67 16 28 31 56 34 63 12 30 19 42 70 137 29 55 75 142 100 193 26
50 50 92 54 92 4 0 12 12 18 28 7 15 28 54 47 87 20 33 41 72 47 88 6 15 15
27 19 27 4 0 13 12 19 28 14 32 20 43 84 139 26 40 47 76 47 82 0 5 6 14 13
18 7 4 18 19 25 33 12 26 17 34 65 108 15 24 27 45 27 47 0 2 37 60 83 128 46
68 86 131 90 140 3 10 11 17 17 17 5 0 10 6 10 13 0 7 7 22 15 32 9 11 30 43
48 70 18 28 50 74 70 103 20 28 53 76 74 105 20 28 50 71 67 94 17 23 54 74
81 113 28 39 80 110 116 159 36 48 80 108 98 134 18 26 40 55 50 65 9 9 48 58
86 107 37 50 73 95 79 100 6 6 38 44 70 85 33 41 63 77 66 80 4 3 39 48 80
100 40 52 78 100 84 105 6 6 29 33 50 60 22 28 47 57 55 66 9 9 43 47 76 85
33 38 87 98 120 134 33 36 80 87 105 114 129 140 480 495 630 636 163 153 147
138 255 235 49 44 101 92 115 106 14 14 75 68 135 118 61 51 137 117 170 146
33 30 85 73 115 97 30 24 68 57 85 73 17 17 44 41 61 55 35 30 134 111 152
125 7 6 21 17 30 26 9 8 33 26 52 39 19 14 40 29 47 35 24 21 212 160 263 195
12 8 28 20 34 25 6 6 22 18 36 28 14 9 66 46 115 82 50 36 115 82 145 103 30
21 80 56 110 77 30 21 96 66 145 100 50 34 114 78 142 98 29 20 56 37 60 38 5
0 35 20 68 45 33 24 72 49 88 55 15 6 27 14 27 18 0 3 21 18 48 31 26 14 50
29 53 33 6 9 30 24 84 51 17 9 44 25 60 36 17 11 36 23 44 27 8 3 37 21 65 40
28 18 56 33 62 33 6 0 17 7 24 15 7 8 19 15 26 15 8 0 36 15 62 33 65 44 85
56 97 61 6 2 17 7 25 10 8 3 38 19 65 35 28 16 58 30 68 30 9 1 17 5 17 10 0
5 12 14 28 20 15 6 34 15 42 21 8 5 26 14 40 20 14 5 34 15 45 22 27 15 28 16
200 102 83 42 156 76 163 76 6 0 12 3 12 8 0 4 24 17 53 30 28 13 59 27 67 32
8 6 26 15 40 20 14 6 32 15 40 20 8 6 22 13 30 16 8 4 47 22 86 40 39 19 77
34 83 34 6 0 11 5 11 10 0 6 5 10 12 10 7 0 64 25 128 56 63 30 130 62 148 70
18 7 47 20 65 28 17 8 55 24 82 36 28 11 63 27 78 35 16 8 35 15 43 15 12 0
62 22 126 56 14 8 33 14 41 14 9 0 28 7 44 15 15 8 55 24 88 37 33 12 65 25
70 29 11 8 84 36 130 49 64 19 137 48 148 59 6 6 23 11 37 11 14 0 34 6 45 14
11 7 31 16 45 19 14 3 57 18 95 32 39 15 82 29 97 32 15 3 33 11 39 19 6 8 23
14 38 14 14 1 44 9 66 20 22 11 45 19 51 20 7 0 25 7 40 15 16 8 40 15 54 15
14 1 36 7 50 15 14 8 33 14 43 15 11 0 33 7 50 15 18 8 50 19 72 24 92 23 132
35 160 47 17 7 51 16 77 19 26 3 50 10 53 14 2 5 25 12 50 15 25 4 57 14 73
22 15 7 41 14 59 14 18 0 47 6 65 14 44 18 109 35 183 48 33 5 68 14 77 19 9
5 36 11 60 15 24 3 59 11 78 19 19 7 62 18 95 23 109 19 200 39 228 51 16 6
46 11 68 11 22 0 65 6 97 14 67 17 150 32 287 51 55 8 118 19 140 24 22 6 59
11 81 11 23 0 61 7 84 15 23 8 72 15 109 16 36 0 93 5 126 10 33 4 114 15 180
23 66 8 138 20 160 25 22 6 78 11 125 11 47 1 105 5 130 10 25 5 117 14 205
20 88 6 185 14 215 20 64 11 719 35 960 35 261 0 968 -24 1039 -36 36 -5 147
-14 248 -19 101 -5 188 -12 193 -15 6 -4 79 -10 163 -15 83 -4 172 -13 197
-19 48 -11 158 -24 395 -45 83 -8 163 -19 178 -25 16 -6 49 -11 75 -11 26 0
65 -5 87 -11 22 -6 85 -15 140 -20 55 -5 119 -16 143 -24 23 -8 59 -15 80 -15
20 0 59 -7 86 -15 27 -8 69 -15 92 -15 24 0 63 -6 86 -14 24 -8 63 -17 88 -21
25 -4 64 -13 88 -21 23 -8 59 -14 80 -14 20 -1 48 -7 62 -15 14 -8 40 -14 58
-15 18 0 49 -7 69 -15 19 -8 50 -15 67 -15 28 0 82 -13 217 -56 26 -8 62 -14
81 -14 18 0 42 -6 53 -14 11 -7 38 -16 60 -20 22 -4 45 -12 51 -17 6 -5 33
-12 60 -15 27 -4 61 -13 76 -20 15 -8 37 -14 50 -14 13 0 35 -6 49 -13 14 -8
45 -17 68 -21 24 -4 53 -13 64 -21 12 -8 33 -15 47 -15 14 0 34 -7 44 -15 11
-8 31 -15 45 -15 14 -1 44 -9 66 -20 22 -11 45 -19 51 -20 7 0 25 -7 40 -15
16 -8 39 -15 51 -15 12 0 34 -6 50 -14 65 -31 100 -45 133 -52 19 -3 44 -13
55 -20 11 -8 29 -14 40 -14 11 0 29 -7 39 -15 11 -8 28 -15 39 -15 10 0 31 -6
45 -14 42 -21 136 -56 153 -56 8 0 24 -7 35 -15 10 -8 28 -15 40 -15 11 0 29
-7 40 -15 10 -8 26 -15 34 -15 9 0 33 -9 55 -20 22 -11 46 -20 55 -20 8 0 24
-7 34 -15 11 -8 28 -15 39 -15 10 0 31 -6 45 -14 15 -8 50 -24 77 -36 28 -12
64 -28 80 -35 17 -8 53 -23 80 -35 200 -85 293 -128 301 -141 3 -5 14 -9 24
-9 11 0 46 -13 77 -29 32 -16 126 -61 208 -101 83 -39 209 -100 280 -134 72
-35 137 -66 145 -70 8 -3 38 -19 65 -35 28 -16 56 -30 64 -30 8 -1 22 -7 30
-15 9 -8 52 -33 96 -56 79 -40 98 -51 133 -70 9 -5 31 -16 48 -24 17 -8 35
-19 38 -25 4 -6 13 -11 21 -11 8 0 33 -13 57 -29 49 -33 142 -86 176 -101 13
-5 38 -21 55 -34 18 -14 43 -30 57 -36 26 -11 47 -24 90 -52 14 -9 41 -24 60
-35 19 -10 67 -38 105 -63 39 -25 77 -50 87 -55 9 -6 54 -35 100 -65 46 -30
91 -59 100 -65 16 -9 48 -32 186 -128 28 -20 76 -53 105 -73 28 -20 57 -41 62
-48 6 -6 26 -20 45 -30 19 -11 60 -38 90 -60 73 -55 70 -52 110 -86 19 -16 38
-30 41 -30 4 0 49 -33 102 -72 52 -40 105 -80 117 -88 12 -8 54 -39 93 -67 39
-29 73 -53 77 -53 3 0 19 -12 36 -27 17 -16 48 -41 71 -56 22 -15 56 -41 74
-57 37 -32 40 -35 84 -69 27 -21 145 -124 185 -161 9 -8 56 -49 105 -90 49
-41 103 -88 120 -105 18 -16 65 -59 105 -95 110 -97 199 -179 251 -230 26 -25
84 -79 130 -120 181 -164 208 -189 324 -306 66 -66 165 -169 220 -229 55 -60
120 -129 145 -155 164 -171 295 -313 336 -365 27 -33 54 -64 60 -70 6 -5 35
-41 65 -80 29 -38 59 -74 65 -80 6 -5 65 -81 132 -167 66 -86 129 -165 139
-176 29 -30 55 -63 103 -130 25 -34 81 -111 125 -171 44 -60 87 -119 95 -131
16 -24 123 -167 140 -187 5 -7 10 -14 10 -17 0 -4 98 -155 118 -181 11 -15 45
-67 57 -87 5 -10 33 -50 61 -90 28 -40 59 -87 68 -103 9 -17 25 -43 36 -60 11
-16 24 -39 29 -50 6 -11 28 -45 50 -75 22 -30 52 -80 68 -110 15 -30 31 -57
34 -60 4 -3 18 -25 31 -50 13 -25 37 -65 53 -90 43 -65 53 -82 64 -107 5 -11
14 -24 20 -27 5 -3 12 -20 16 -36 4 -17 10 -30 15 -30 4 0 13 -12 19 -27 6
-16 27 -55 46 -88 19 -33 41 -73 50 -90 8 -16 19 -37 24 -45 5 -8 12 -22 16
-30 3 -8 17 -33 30 -55 13 -22 35 -62 50 -90 14 -27 30 -57 35 -65 5 -8 21
-40 35 -70 14 -30 30 -62 34 -70 9 -16 48 -91 68 -130 25 -51 186 -386 199
-417 17 -39 36 -81 64 -148 12 -27 28 -62 36 -77 8 -14 14 -33 14 -41 0 -8 7
-20 15 -27 8 -7 15 -19 15 -28 0 -15 27 -80 56 -134 8 -14 14 -35 14 -46 0
-11 7 -25 15 -32 8 -7 15 -22 15 -34 0 -12 7 -31 15 -42 8 -10 15 -25 15 -33
0 -13 23 -68 56 -134 8 -16 14 -39 14 -51 0 -12 7 -31 15 -42 8 -10 15 -26 15
-34 0 -8 9 -33 20 -55 11 -22 20 -49 20 -60 0 -11 7 -29 15 -39 8 -11 15 -29
15 -41 0 -11 6 -29 14 -40 7 -11 17 -35 21 -53 4 -18 13 -45 21 -60 8 -15 14
-36 14 -47 0 -11 7 -29 15 -39 8 -11 15 -29 15 -41 0 -11 6 -29 14 -40 7 -11
17 -35 21 -53 4 -18 13 -45 21 -60 8 -15 14 -37 14 -48 0 -12 7 -35 15 -50 8
-16 15 -40 15 -54 0 -14 7 -34 15 -44 8 -11 15 -29 15 -40 1 -12 9 -39 20 -61
11 -22 20 -51 20 -65 0 -14 7 -34 15 -44 8 -11 15 -33 15 -48 0 -16 6 -41 14
-56 7 -15 16 -44 20 -64 4 -20 13 -50 21 -65 8 -15 15 -46 15 -68 0 -22 7 -49
15 -59 8 -11 15 -34 15 -50 0 -17 7 -43 14 -58 8 -15 18 -53 21 -85 4 -32 12
-63 17 -69 5 -7 11 -36 15 -65 3 -30 12 -63 19 -74 8 -11 14 -37 14 -58 0 -20
6 -52 14 -70 7 -18 16 -54 20 -80 4 -26 14 -59 22 -75 7 -15 14 -45 14 -67 1
-22 7 -51 15 -65 8 -14 14 -42 15 -63 0 -21 6 -52 14 -70 7 -18 16 -70 20
-117 4 -47 12 -91 18 -98 6 -7 13 -45 16 -85 2 -39 11 -84 18 -99 8 -15 14
-53 14 -85 0 -33 6 -83 14 -113 8 -30 17 -93 21 -140 4 -47 13 -104 21 -128 8
-23 14 -77 14 -120 0 -42 7 -95 15 -117 8 -22 14 -72 15 -111 0 -39 6 -93 14
-120 8 -27 18 -107 21 -179 4 -71 12 -138 17 -149 6 -10 14 -100 19 -200 4
-99 13 -203 18 -231 5 -27 10 -124 11 -215 1 -91 6 -190 11 -220 5 -30 13
-154 18 -276 9 -238 16 -267 67 -280 13 -4 522 -1 1132 5 626 6 1522 8 2062 5
955 -7 955 -7 973 14 16 17 18 38 18 149 -1 70 -6 155 -12 188 -6 33 -14 161
-19 285 -5 124 -13 248 -19 275 -5 28 -10 106 -11 175 -1 69 -6 152 -11 185
-5 33 -15 143 -23 245 -9 102 -20 208 -25 235 -5 28 -10 100 -11 160 0 61 -5
128 -11 150 -5 22 -14 108 -19 191 -5 83 -14 163 -20 178 -5 15 -13 73 -16
129 -4 56 -13 127 -20 157 -8 30 -14 80 -14 111 0 32 -5 70 -11 86 -6 15 -15
70 -20 121 -5 51 -13 100 -18 110 -5 10 -13 58 -17 108 -3 49 -11 95 -16 101
-6 7 -13 54 -17 105 -4 51 -13 103 -19 115 -7 12 -12 40 -12 63 0 22 -7 56
-15 75 -7 19 -17 63 -21 98 -4 34 -13 76 -21 94 -7 18 -13 54 -13 80 -1 26 -7
59 -15 73 -8 14 -15 45 -15 70 -1 25 -7 63 -15 85 -8 22 -18 62 -21 89 -4 27
-13 61 -20 75 -8 14 -14 40 -14 58 0 18 -6 47 -14 65 -8 18 -19 58 -26 88 -6
30 -17 82 -24 115 -7 33 -18 73 -24 88 -7 16 -12 40 -12 55 -1 15 -7 38 -15
52 -8 14 -14 39 -15 55 0 17 -7 43 -15 59 -8 16 -18 47 -22 69 -3 23 -12 52
-20 66 -7 14 -13 42 -13 61 -1 19 -7 46 -15 60 -8 14 -14 39 -15 55 0 17 -7
43 -15 58 -8 15 -17 44 -21 64 -4 20 -13 48 -20 62 -8 14 -14 37 -14 51 -1 14
-7 36 -15 50 -8 14 -14 38 -15 53 0 15 -6 40 -14 55 -8 15 -18 45 -22 66 -4
22 -13 51 -20 65 -8 14 -14 38 -14 52 0 14 -7 34 -15 45 -8 10 -15 30 -15 44
0 14 -7 38 -15 53 -8 15 -17 44 -21 64 -4 20 -13 48 -20 62 -8 14 -14 37 -14
51 0 14 -7 34 -15 44 -8 11 -15 31 -15 46 0 14 -6 34 -14 45 -7 11 -17 36 -21
55 -4 19 -14 44 -21 55 -8 11 -14 34 -14 51 0 17 -7 37 -15 44 -8 7 -15 24
-15 39 0 15 -6 35 -14 46 -7 11 -17 36 -21 55 -4 19 -14 44 -21 55 -8 11 -14
29 -14 40 0 11 -7 29 -15 39 -8 11 -15 29 -15 41 0 12 -7 30 -15 41 -8 10 -15
26 -15 34 0 8 -9 32 -20 53 -11 20 -20 45 -20 54 0 10 -7 27 -15 37 -8 11 -15
28 -15 38 0 10 -9 35 -20 55 -11 21 -20 43 -20 50 0 6 -7 25 -15 42 -8 17 -22
45 -30 62 -8 17 -15 39 -15 49 0 9 -7 23 -15 30 -8 7 -15 20 -15 29 0 9 -9 33
-20 54 -11 20 -20 45 -20 56 0 10 -7 24 -15 31 -8 7 -15 21 -15 32 0 11 -6 32
-14 46 -14 27 -46 96 -72 160 -37 87 -47 110 -65 144 -10 20 -19 43 -19 51 0
8 -7 20 -15 27 -8 7 -15 19 -15 28 0 9 -9 36 -21 61 -11 25 -28 62 -36 81 -9
19 -20 42 -25 50 -4 8 -11 22 -14 30 -3 8 -14 32 -24 52 -11 20 -20 42 -20 48
0 6 -7 18 -15 26 -8 9 -15 24 -15 33 0 10 -7 24 -15 31 -8 7 -15 23 -15 36 0
12 -4 26 -10 29 -5 3 -39 65 -75 138 -65 131 -76 151 -95 185 -6 9 -13 24 -16
32 -9 24 -13 31 -54 105 -21 39 -59 111 -85 160 -25 50 -55 104 -65 120 -11
17 -26 44 -35 60 -8 17 -38 71 -65 120 -28 50 -57 104 -65 122 -8 17 -19 34
-25 38 -5 3 -10 15 -10 25 0 10 -6 23 -12 27 -7 4 -21 24 -32 43 -47 87 -64
118 -87 155 -14 22 -36 60 -50 85 -13 25 -38 65 -55 90 -16 25 -33 52 -37 60
-4 8 -15 27 -25 41 -9 15 -33 53 -52 84 -39 64 -41 67 -127 196 -34 52 -66 99
-70 104 -4 6 -21 30 -38 55 -16 25 -34 50 -40 56 -5 6 -17 22 -25 34 -8 12
-23 33 -32 45 -10 13 -18 27 -18 31 0 4 -7 14 -15 23 -16 16 -93 122 -155 211
-52 76 -127 180 -234 325 -141 191 -199 270 -216 295 -8 12 -19 28 -25 34 -24
27 -55 76 -55 86 0 5 -4 10 -8 10 -4 0 -52 60 -107 133 -55 72 -103 134 -106
137 -3 3 -39 48 -79 100 -41 52 -80 100 -86 105 -6 6 -35 42 -64 80 -29 39
-58 75 -64 80 -6 6 -38 44 -71 85 -33 41 -67 82 -75 90 -8 9 -26 30 -40 46
-86 101 -212 244 -250 284 -26 27 -196 213 -238 259 -13 14 -72 77 -130 140
-59 63 -138 149 -177 190 -219 236 -599 613 -774 767 -24 22 -67 62 -96 89
-29 28 -68 63 -86 80 -77 68 -216 190 -238 210 -13 11 -34 29 -47 40 -12 11
-66 56 -120 100 -54 44 -125 103 -158 130 -34 28 -104 84 -156 125 -52 41 -97
77 -100 81 -3 3 -41 34 -85 69 -44 34 -82 66 -85 70 -3 4 -30 24 -60 45 -30
21 -62 44 -70 52 -38 35 -89 76 -138 110 -29 21 -114 83 -188 138 -73 55 -177
132 -230 170 -52 39 -101 75 -107 80 -7 6 -23 18 -37 27 -14 10 -53 36 -86 60
-34 24 -88 61 -120 84 -33 22 -84 58 -114 79 -112 79 -171 120 -187 130 -10 6
-39 25 -65 43 -26 17 -51 32 -54 32 -3 0 -16 8 -29 18 -32 24 -49 35 -145 97
-47 30 -92 59 -100 64 -8 6 -51 34 -96 64 -44 29 -87 57 -95 61 -18 9 -44 25
-99 61 -65 43 -82 53 -110 65 -13 6 -27 14 -30 18 -3 4 -16 13 -30 20 -41 20
-135 75 -140 81 -3 4 -16 12 -30 19 -14 6 -52 28 -85 47 -33 20 -71 41 -85 47
-14 7 -27 15 -30 18 -9 11 -160 95 -305 169 -56 29 -68 35 -112 61 -10 6 -25
13 -33 16 -8 3 -73 34 -145 69 -304 147 -493 238 -535 257 -25 11 -58 26 -75
33 -16 8 -66 30 -110 50 -44 20 -96 44 -115 52 -19 9 -48 22 -63 29 -16 8 -33
14 -38 14 -10 0 -151 64 -179 81 -8 5 -22 12 -30 15 -8 3 -28 12 -43 20 -16 7
-33 14 -39 14 -11 0 -35 11 -158 69 -36 17 -69 31 -74 31 -5 0 -30 10 -55 21
-25 12 -62 29 -81 37 -19 8 -48 21 -63 28 -16 8 -34 14 -40 14 -7 0 -29 9 -50
20 -20 11 -45 20 -56 20 -10 0 -24 7 -31 15 -7 8 -22 15 -34 15 -12 0 -31 7
-42 15 -10 8 -26 15 -34 15 -8 0 -33 9 -55 20 -22 11 -47 19 -56 20 -8 0 -24
7 -35 15 -10 8 -28 15 -39 15 -11 0 -29 6 -40 14 -11 7 -35 17 -53 21 -18 4
-45 13 -60 21 -15 8 -34 14 -42 14 -8 0 -24 7 -34 15 -11 8 -31 15 -44 15 -13
0 -36 6 -50 14 -15 7 -61 24 -102 36 -41 12 -84 27 -95 33 -11 6 -36 14 -55
18 -42 9 -129 37 -151 49 -9 5 -34 12 -55 16 -22 4 -51 13 -66 20 -15 8 -37
14 -50 14 -13 0 -36 7 -52 15 -15 8 -36 15 -45 15 -14 0 -58 13 -176 52 -16 5
-50 14 -75 19 -24 5 -49 14 -54 19 -6 6 -21 10 -36 10 -14 1 -43 8 -65 16 -22
8 -60 19 -85 23 -25 5 -58 14 -75 19 -36 12 -103 30 -167 43 -26 5 -60 16 -75
24 -15 8 -44 15 -63 15 -19 1 -46 7 -60 15 -14 8 -42 14 -63 15 -21 0 -50 6
-65 14 -15 7 -49 16 -77 20 -27 3 -68 13 -90 21 -22 8 -55 14 -74 15 -18 0
-54 6 -80 14 -55 18 -132 33 -225 47 -38 5 -77 14 -87 19 -10 6 -46 13 -81 17
-35 3 -80 12 -102 20 -21 7 -60 13 -87 13 -27 0 -68 6 -91 14 -24 8 -72 17
-108 20 -36 3 -87 13 -114 21 -27 8 -65 15 -85 15 -20 0 -58 7 -85 15 -27 8
-71 15 -98 15 -27 0 -77 6 -111 14 -34 8 -102 19 -152 25 -49 5 -110 15 -135
20 -25 6 -67 10 -95 11 -27 0 -77 7 -110 15 -33 8 -85 15 -115 15 -30 0 -71 5
-90 11 -19 6 -93 17 -165 25 -71 8 -155 18 -185 23 -30 5 -84 10 -120 10 -36
1 -100 8 -143 16 -43 8 -118 15 -167 15 -48 0 -125 6 -171 14 -46 8 -160 17
-254 21 -93 3 -196 10 -227 16 -32 5 -147 14 -255 20 -109 5 -265 13 -348 18
-177 11 -992 11 -1115 0z"/>
<path d="M32400 39149 c-162 -4 -322 -13 -356 -18 -33 -6 -110 -14 -170 -17
-60 -3 -124 -10 -143 -16 -19 -6 -75 -14 -125 -18 -50 -5 -116 -13 -146 -19
-30 -6 -86 -15 -125 -20 -131 -19 -210 -32 -266 -47 -30 -8 -72 -14 -92 -14
-19 0 -48 -5 -64 -11 -15 -6 -55 -15 -88 -20 -33 -6 -79 -17 -103 -25 -23 -7
-56 -14 -71 -14 -16 0 -42 -7 -57 -15 -16 -8 -42 -15 -57 -15 -15 0 -42 -6
-60 -14 -18 -7 -54 -16 -79 -20 -26 -4 -50 -11 -53 -16 -3 -5 -27 -12 -53 -16
-26 -3 -56 -11 -67 -17 -11 -6 -38 -14 -60 -18 -56 -11 -156 -38 -180 -49 -11
-5 -38 -14 -60 -19 -22 -5 -55 -14 -72 -20 -18 -6 -48 -16 -65 -22 -18 -6 -53
-15 -77 -20 -24 -5 -49 -13 -55 -18 -7 -6 -30 -14 -51 -20 -22 -5 -55 -14 -72
-20 -18 -6 -48 -16 -65 -22 -18 -6 -51 -15 -73 -20 -21 -6 -44 -14 -50 -19 -5
-4 -28 -12 -50 -16 -22 -4 -49 -13 -60 -20 -11 -8 -29 -14 -40 -14 -12 0 -30
-7 -41 -15 -10 -8 -28 -15 -39 -15 -11 0 -38 -9 -60 -20 -22 -11 -49 -20 -60
-20 -11 0 -29 -7 -39 -15 -11 -8 -29 -15 -41 -15 -12 0 -30 -7 -41 -15 -10 -8
-25 -15 -33 -15 -8 0 -35 -10 -60 -21 -47 -22 -93 -42 -146 -64 -16 -7 -51
-22 -76 -34 -25 -11 -54 -21 -63 -21 -9 0 -16 -4 -16 -10 0 -5 -12 -13 -27
-17 -16 -3 -48 -16 -73 -29 -25 -12 -90 -43 -145 -69 -163 -76 -394 -194 -457
-233 -15 -9 -80 -48 -144 -87 -64 -38 -128 -78 -142 -87 -15 -10 -39 -23 -54
-29 -16 -6 -28 -15 -28 -19 0 -4 -12 -13 -27 -19 -16 -7 -37 -17 -48 -24 -32
-20 -254 -166 -328 -216 -37 -25 -75 -50 -85 -56 -9 -5 -41 -28 -72 -50 -30
-23 -67 -48 -82 -58 -14 -9 -37 -27 -51 -39 -14 -13 -35 -30 -47 -38 -12 -8
-41 -29 -64 -46 -22 -17 -66 -48 -96 -69 -30 -21 -62 -44 -70 -52 -8 -7 -57
-45 -109 -84 -52 -39 -100 -77 -108 -84 -7 -8 -35 -31 -61 -52 -25 -21 -58
-49 -72 -63 -14 -14 -41 -38 -60 -54 -115 -94 -821 -789 -905 -891 -28 -33
-75 -87 -105 -119 -30 -33 -62 -67 -70 -76 -8 -9 -42 -46 -76 -81 -33 -35 -87
-95 -119 -134 -32 -38 -61 -72 -64 -75 -9 -7 -142 -179 -171 -220 -28 -40 -31
-43 -70 -89 -17 -19 -30 -38 -30 -41 0 -7 -138 -192 -164 -220 -7 -8 -33 -44
-58 -80 -24 -36 -62 -90 -83 -120 -32 -45 -108 -157 -155 -230 -5 -8 -25 -39
-45 -69 -19 -29 -35 -56 -35 -59 0 -3 -6 -13 -14 -21 -8 -9 -27 -39 -42 -67
-42 -76 -127 -218 -134 -224 -3 -3 -11 -16 -18 -30 -20 -41 -75 -135 -81 -140
-4 -3 -12 -16 -19 -30 -6 -14 -28 -52 -47 -85 -19 -33 -40 -72 -46 -87 -6 -16
-15 -28 -19 -28 -4 0 -11 -12 -15 -27 -3 -16 -12 -35 -20 -43 -7 -8 -16 -25
-19 -37 -4 -13 -12 -23 -17 -23 -5 0 -9 -9 -9 -19 0 -11 -6 -26 -13 -33 -15
-16 -227 -440 -227 -455 0 -6 -7 -16 -15 -23 -8 -7 -15 -20 -15 -30 0 -10 -7
-23 -15 -30 -8 -7 -15 -23 -15 -35 0 -12 -7 -28 -15 -35 -8 -7 -15 -19 -15
-28 0 -8 -9 -36 -21 -61 -12 -25 -28 -62 -36 -81 -8 -19 -21 -48 -29 -63 -8
-16 -14 -34 -14 -40 0 -7 -9 -29 -20 -50 -11 -20 -20 -45 -20 -55 0 -10 -7
-27 -15 -38 -8 -10 -15 -28 -15 -39 0 -11 -6 -29 -14 -40 -7 -11 -16 -33 -20
-50 -4 -16 -13 -43 -20 -60 -17 -39 -36 -91 -46 -133 -4 -18 -12 -38 -18 -45
-5 -7 -13 -27 -17 -45 -4 -18 -13 -45 -21 -60 -8 -15 -14 -38 -14 -52 0 -14
-7 -34 -15 -44 -8 -11 -15 -31 -15 -45 0 -14 -6 -38 -14 -52 -7 -14 -16 -43
-20 -65 -4 -21 -14 -51 -22 -66 -8 -15 -14 -40 -14 -56 0 -15 -7 -37 -15 -48
-8 -10 -15 -35 -15 -54 0 -19 -7 -47 -14 -62 -8 -16 -18 -49 -22 -74 -4 -26
-13 -59 -20 -73 -8 -14 -14 -42 -14 -61 0 -19 -7 -48 -15 -64 -8 -15 -15 -42
-15 -60 0 -17 -6 -43 -14 -57 -7 -14 -17 -52 -20 -83 -4 -32 -14 -73 -22 -91
-8 -19 -14 -60 -14 -92 0 -32 -6 -85 -14 -118 -11 -47 -15 -255 -20 -990 -3
-511 -2 -959 2 -995 l7 -65 510 0 c281 0 881 6 1335 12 1053 16 17670 11
18420 -6 677 -15 1198 -14 1230 2 37 18 49 50 38 100 -4 23 -15 159 -23 302
-8 143 -19 292 -24 330 -6 39 -10 104 -10 145 -1 41 -8 107 -16 145 -8 39 -15
102 -15 140 -1 39 -6 93 -11 120 -6 28 -16 102 -24 165 -7 63 -18 133 -24 155
-6 22 -11 68 -11 101 0 34 -7 81 -15 104 -8 23 -15 63 -15 89 0 25 -5 64 -11
86 -6 22 -17 76 -24 120 -8 44 -18 99 -24 123 -6 23 -16 61 -22 85 -6 23 -14
67 -18 98 -5 30 -13 64 -19 75 -5 10 -13 43 -17 72 -4 30 -13 66 -21 80 -8 15
-14 43 -14 62 0 20 -4 40 -10 46 -5 5 -15 37 -21 69 -6 33 -14 65 -19 70 -4 6
-11 31 -14 58 -4 26 -14 59 -22 75 -7 15 -14 38 -14 52 0 14 -7 34 -15 44 -8
11 -15 34 -15 51 0 17 -6 40 -14 51 -8 11 -18 38 -22 60 -4 21 -13 48 -20 59
-8 11 -14 33 -14 50 0 17 -5 36 -11 42 -6 6 -14 26 -19 44 -15 58 -41 133 -56
161 -8 14 -14 35 -14 45 0 10 -5 24 -11 30 -6 6 -14 26 -19 44 -13 51 -38 121
-55 151 -8 14 -15 35 -15 46 0 11 -7 25 -15 32 -8 7 -15 22 -15 34 0 12 -7 31
-15 42 -8 10 -15 25 -15 33 0 8 -10 35 -21 60 -12 25 -28 60 -35 76 -7 17 -22
51 -33 76 -12 25 -21 49 -21 53 0 4 -7 14 -15 22 -8 9 -15 26 -15 38 0 13 -7
29 -15 36 -8 7 -15 20 -15 29 0 9 -4 21 -9 26 -16 16 -61 105 -61 121 0 7 -4
14 -10 14 -5 0 -13 12 -16 28 -4 15 -11 32 -16 39 -10 12 -34 56 -123 228 -25
50 -62 117 -80 150 -19 33 -42 74 -50 90 -9 17 -22 39 -28 50 -7 11 -23 38
-35 60 -12 22 -31 54 -42 70 -11 17 -24 41 -30 54 -6 13 -23 42 -38 65 -15 22
-33 50 -39 61 -30 50 -108 176 -143 230 -22 33 -45 69 -50 80 -29 54 -190 292
-267 393 -35 45 -63 87 -63 92 0 6 -4 10 -8 10 -10 0 -62 77 -62 91 0 5 -4 9
-9 9 -4 0 -21 19 -37 43 -36 53 -184 249 -198 262 -6 6 -38 44 -71 85 -33 41
-65 80 -71 85 -6 6 -36 40 -67 77 -62 74 -96 113 -147 168 -65 70 -115 124
-195 215 -85 95 -426 439 -560 565 -73 68 -271 251 -336 311 -55 50 -86 76
-144 123 -32 27 -65 54 -72 60 -22 21 -86 71 -157 124 -39 29 -81 61 -93 70
-12 9 -31 24 -44 32 -12 8 -61 45 -109 83 -49 37 -93 67 -99 67 -5 0 -14 6
-18 13 -4 8 -28 26 -53 41 -25 15 -76 49 -115 77 -66 47 -239 166 -290 199
-12 8 -49 30 -81 49 -33 19 -61 37 -64 41 -3 3 -16 11 -30 18 -14 7 -38 21
-55 32 -16 10 -40 25 -52 32 -44 26 -136 83 -162 100 -14 10 -37 22 -50 28
-13 6 -44 24 -68 40 -24 17 -50 30 -58 30 -8 0 -17 5 -20 10 -4 6 -21 17 -38
25 -18 8 -41 20 -52 26 -24 15 -29 17 -135 69 -47 24 -101 49 -120 58 -19 8
-42 19 -50 24 -8 4 -22 11 -30 14 -8 3 -60 28 -115 55 -55 27 -104 49 -109 49
-5 0 -30 10 -55 21 -44 21 -74 34 -143 62 -18 8 -49 21 -68 30 -19 8 -46 18
-60 22 -25 6 -68 24 -123 51 -16 8 -36 14 -45 14 -9 1 -35 9 -57 20 -22 11
-48 19 -58 20 -11 0 -31 6 -45 14 -34 17 -86 35 -137 47 -21 6 -44 14 -50 19
-5 4 -28 11 -50 15 -22 4 -52 14 -67 21 -15 8 -38 14 -51 14 -13 0 -32 7 -43
15 -10 8 -30 15 -44 15 -14 0 -38 7 -54 15 -16 9 -46 20 -65 25 -72 18 -146
40 -161 47 -8 3 -37 12 -65 19 -99 24 -140 36 -170 46 -16 5 -49 14 -73 19
-24 5 -49 12 -55 16 -7 4 -34 13 -62 20 -118 28 -172 42 -200 51 -45 15 -113
32 -175 43 -30 5 -59 14 -65 19 -6 5 -35 12 -65 16 -30 4 -69 13 -87 21 -18 7
-50 13 -72 13 -23 0 -58 6 -78 14 -21 8 -70 17 -110 20 -39 3 -83 10 -97 16
-15 5 -63 12 -109 16 -45 4 -107 13 -137 20 -30 8 -81 14 -115 14 -33 1 -80 5
-105 11 -25 6 -106 14 -180 19 -74 5 -163 14 -197 20 -70 12 -792 30 -1098 28
-110 -1 -333 -5 -495 -9z"/>
<path d="M6295 26311 c-502 -7 -479 -3 -568 -95 -50 -51 -115 -125 -155 -177
-31 -39 -62 -106 -62 -134 0 -14 -7 -42 -16 -63 -14 -33 -16 -370 -23 -3402
-9 -4058 -8 -9196 3 -10110 5 -367 13 -683 18 -705 5 -22 14 -68 18 -102 5
-34 14 -70 20 -80 5 -10 14 -29 20 -43 5 -14 16 -33 22 -44 42 -61 172 -196
190 -196 6 0 19 -6 27 -14 9 -7 59 -21 111 -31 90 -17 404 -18 5770 -19 4721
-1 5687 1 5745 12 39 8 86 17 105 21 27 5 43 18 70 56 35 49 97 114 161 170
19 17 43 44 54 60 19 29 20 59 27 765 8 782 1 6457 -8 6550 -16 165 -45 241
-120 311 -84 77 -229 168 -271 169 -10 1 -36 7 -58 15 -74 27 -731 40 -2055
40 -1287 -1 -1616 -8 -1675 -39 -17 -9 -35 -16 -42 -16 -16 0 -127 -65 -178
-103 -54 -42 -136 -126 -157 -163 -9 -16 -25 -61 -35 -99 -17 -66 -18 -177
-23 -1943 -4 -1650 -7 -1874 -20 -1882 -18 -12 -462 -14 -1810 -11 -977 3
-1006 4 -1025 22 -20 19 -20 36 -25 5457 -5 5222 -6 5439 -23 5477 -10 22 -34
51 -53 65 -20 13 -56 50 -81 83 -25 32 -69 83 -97 112 -92 95 46 88 -1766 90
-866 1 -1773 -1 -2015 -4z"/>
<path d="M25862 26313 c-2946 -2 -4777 -7 -4785 -12 -52 -40 -117 -105 -153
-153 -49 -62 -114 -182 -114 -207 0 -9 -6 -25 -14 -36 -9 -14 -18 -100 -30
-290 -15 -246 -16 -820 -11 -6555 5 -6369 11 -7443 40 -7513 8 -20 15 -47 15
-59 0 -13 6 -32 14 -43 7 -11 17 -31 21 -45 14 -46 131 -177 210 -237 22 -16
72 -38 110 -49 69 -19 169 -19 5325 -19 5056 0 5257 1 5312 18 61 20 73 30
159 128 31 35 77 86 102 113 90 96 93 110 106 457 14 380 14 1163 0 2074 -8
582 -12 704 -24 722 -8 12 -15 31 -15 41 0 11 -7 25 -15 32 -8 7 -15 18 -15
25 0 11 -17 36 -53 75 -7 8 -38 47 -69 85 -66 84 -119 115 -199 115 -30 0
-103 7 -164 15 -95 13 -520 15 -3057 15 -2935 0 -2948 0 -2968 20 -17 17 -20
33 -20 108 0 227 0 1770 0 1789 0 14 10 25 33 33 25 10 478 15 2017 20 1092 5
2095 11 2230 16 291 9 345 20 372 74 9 19 21 40 25 45 4 6 19 32 33 58 13 26
27 47 30 47 17 0 74 59 93 95 20 39 21 59 29 690 5 358 7 1035 5 1507 -4 919
-1 871 -51 921 -15 15 -114 135 -168 205 -41 52 -71 64 -208 80 -106 13 -454
16 -2272 21 -1744 5 -2149 8 -2160 19 -18 18 -19 1609 -1 1627 22 23 567 28
3003 30 2624 3 3255 8 3280 30 8 7 24 15 35 19 35 10 179 177 205 237 5 13 14
31 18 39 44 79 42 54 54 684 16 838 -1 2421 -27 2481 -24 56 -59 127 -67 140
-74 101 -126 158 -177 193 -34 23 -66 42 -72 42 -5 0 -20 6 -32 14 -33 21
-543 22 -5935 19z"/>
<path d="M35455 26299 c-4 -5 -17 -14 -30 -19 -37 -14 -174 -203 -225 -310
-44 -93 -49 -106 -55 -150 -4 -25 -13 -70 -21 -100 -12 -46 -14 -1089 -14
-7000 1 -4564 4 -6960 11 -6990 5 -25 14 -88 20 -140 5 -52 16 -109 24 -127 8
-17 15 -36 15 -42 0 -20 51 -85 146 -186 88 -94 101 -104 157 -121 60 -19 198
-19 5262 -19 5028 0 5204 1 5325 19 69 10 138 26 155 35 45 25 138 123 230
244 36 47 35 44 66 252 7 47 9 487 6 1360 -6 1369 -13 1622 -50 1663 -10 10
-17 24 -17 30 0 7 -4 12 -9 12 -5 0 -30 32 -57 71 -65 96 -127 163 -168 183
-24 11 -62 16 -128 16 -51 0 -174 7 -273 15 -151 12 -630 14 -3021 15 -2256 0
-2844 3 -2857 13 -16 11 -17 83 -17 967 -1 1070 -8 974 74 984 22 3 932 8
2021 11 1994 7 2340 12 2450 37 83 18 102 34 137 106 18 37 54 87 87 121 53
54 58 63 76 142 19 81 20 131 20 1524 l0 1440 -37 55 c-21 30 -59 78 -85 105
-27 28 -64 69 -83 90 -71 80 -109 102 -185 109 -38 4 -95 11 -125 17 -33 5
-910 10 -2190 11 -1174 2 -2141 7 -2147 11 -10 6 -13 181 -13 818 l0 809 23 9
c54 20 1826 34 3802 30 2004 -4 2411 1 2450 27 11 8 25 14 32 14 15 0 47 31
98 95 22 28 50 61 63 75 12 14 38 48 56 75 31 46 36 63 53 195 17 135 18 240
18 1485 -1 1204 -2 1353 -18 1463 -11 82 -23 131 -34 146 -29 37 -134 153
-198 220 -104 107 539 96 -5522 96 -3722 0 -5294 -3 -5298 -11z"/>
<path d="M49791 26295 c-78 -17 -82 -21 -249 -201 -65 -70 -72 -80 -107 -150
-20 -41 -25 -66 -25 -127 0 -42 -7 -152 -15 -244 -21 -230 -17 -2567 4 -2787
17 -173 39 -217 151 -310 19 -16 71 -62 115 -103 44 -41 100 -84 125 -96 l45
-22 2375 0 c2472 0 2406 1 2431 -37 11 -17 -3 -56 -32 -87 -16 -18 -29 -34
-29 -37 0 -6 -40 -62 -60 -84 -8 -9 -28 -34 -45 -55 -16 -20 -48 -59 -70 -85
-120 -141 -277 -330 -323 -388 -29 -37 -63 -78 -76 -92 -13 -14 -34 -41 -47
-60 -23 -33 -64 -82 -100 -119 -8 -9 -40 -47 -70 -86 -29 -38 -67 -84 -84
-102 -16 -18 -34 -38 -40 -45 -24 -31 -101 -124 -115 -138 -26 -28 -107 -124
-131 -155 -13 -17 -28 -35 -34 -41 -18 -19 -92 -107 -175 -209 -115 -139 -163
-197 -180 -215 -8 -8 -40 -47 -70 -85 -58 -74 -95 -117 -146 -171 -18 -18 -45
-50 -60 -71 -16 -21 -33 -43 -39 -49 -10 -11 -53 -62 -150 -179 -32 -38 -65
-77 -74 -87 -9 -9 -26 -29 -38 -45 -12 -15 -34 -44 -50 -64 -15 -20 -35 -47
-43 -59 -23 -35 -92 -124 -105 -135 -6 -5 -42 -50 -80 -100 -38 -49 -77 -98
-87 -108 -10 -10 -18 -21 -18 -25 0 -4 -16 -25 -36 -47 -19 -22 -61 -69 -92
-104 -31 -35 -76 -89 -100 -120 -24 -31 -47 -58 -51 -61 -4 -3 -40 -48 -81
-100 -41 -52 -86 -106 -100 -120 -14 -14 -39 -43 -55 -65 -17 -22 -34 -45 -40
-51 -34 -38 -67 -78 -120 -144 -33 -41 -71 -86 -85 -100 -14 -14 -34 -37 -46
-52 -25 -32 -113 -135 -134 -158 -8 -8 -45 -53 -81 -100 -37 -47 -86 -105
-109 -130 -23 -25 -53 -61 -66 -80 -12 -19 -37 -51 -56 -71 -18 -19 -67 -78
-109 -130 -42 -51 -87 -105 -100 -119 -13 -14 -44 -50 -69 -80 -25 -30 -49
-60 -55 -67 -5 -7 -14 -18 -20 -25 -40 -52 -142 -173 -166 -199 -9 -9 -50 -59
-90 -110 -41 -52 -79 -98 -85 -104 -7 -5 -28 -33 -48 -62 -19 -29 -52 -69 -71
-89 -20 -20 -50 -57 -67 -83 -17 -25 -36 -50 -42 -56 -6 -5 -43 -51 -82 -101
-40 -50 -84 -104 -99 -120 -15 -16 -41 -48 -58 -71 -17 -24 -34 -43 -39 -43
-4 0 -8 -7 -8 -15 0 -8 -4 -15 -8 -15 -5 0 -24 -21 -42 -47 -19 -27 -37 -50
-40 -53 -23 -20 -210 -274 -210 -287 0 -3 -7 -13 -16 -22 -20 -21 -84 -120
-84 -131 0 -5 -6 -15 -12 -22 -11 -11 -63 -112 -103 -203 -8 -16 -17 -46 -21
-65 -3 -19 -10 -40 -15 -45 -4 -6 -12 -35 -18 -65 -5 -30 -15 -75 -21 -100 -9
-34 -13 -465 -14 -1725 -1 -1603 0 -1683 17 -1755 28 -110 54 -156 133 -235
126 -124 158 -147 264 -182 53 -17 262 -18 5480 -18 5255 0 5432 1 5659 19
l233 19 52 52 c28 28 65 68 81 90 17 21 37 45 46 54 31 31 49 69 71 147 l21
79 1 1575 1 1575 -23 64 c-31 87 -82 160 -177 256 -73 73 -85 81 -140 94 -107
25 -372 29 -2200 30 -990 1 -1962 5 -2160 11 -198 5 -514 12 -702 14 -188 2
-346 7 -352 11 -6 3 -11 15 -11 26 0 33 29 72 141 193 31 34 70 76 85 95 16
19 53 58 82 88 28 29 52 55 52 57 0 2 9 15 20 28 11 12 36 43 56 68 20 25 53
65 74 90 20 25 63 77 95 115 32 39 65 77 74 86 9 9 25 29 36 44 11 16 25 33
30 39 6 6 43 54 84 106 41 52 80 99 88 103 7 4 13 15 13 22 0 8 3 15 8 15 4 0
32 32 62 72 30 40 64 82 75 94 11 13 29 35 40 50 11 15 25 32 30 38 6 6 41 51
79 99 37 48 78 98 89 111 12 13 36 41 52 61 35 43 98 119 129 155 12 14 47 57
78 95 31 39 72 88 92 110 19 22 39 45 43 50 38 49 103 125 126 147 15 15 27
32 27 37 0 6 6 14 13 18 6 4 39 42 72 83 32 41 61 77 65 80 3 3 32 39 65 80
33 41 74 89 90 107 17 18 35 38 40 45 39 50 100 125 109 133 6 6 27 30 46 55
19 25 50 63 69 85 20 22 56 65 81 94 25 29 52 61 60 70 9 9 36 41 60 71 25 30
47 57 50 60 3 3 27 32 54 65 69 86 118 146 139 167 9 10 17 21 17 26 0 4 19
27 41 52 40 44 67 76 144 170 77 93 110 134 125 150 8 9 42 47 75 85 68 79
103 120 125 144 8 9 35 41 60 71 47 58 83 100 113 131 9 11 17 22 17 27 0 4
15 23 33 42 18 19 50 58 72 85 22 28 42 52 45 55 3 3 25 30 50 60 24 30 51 62
60 71 8 9 33 38 55 65 96 115 159 190 169 199 6 6 21 22 32 37 25 31 112 134
134 157 9 9 43 50 75 91 33 41 62 77 65 80 3 3 23 28 45 55 21 28 44 55 50 60
6 6 28 33 50 60 21 28 44 55 49 60 6 6 38 44 71 85 33 41 63 77 66 80 4 3 33
39 66 80 33 41 73 89 89 107 16 17 36 41 44 54 18 26 58 76 83 104 10 11 39
52 65 90 25 39 49 72 52 75 11 10 62 90 82 130 7 14 16 27 20 30 4 3 12 17 17
30 6 14 15 32 19 40 24 43 42 83 42 93 0 7 7 25 15 41 9 16 20 46 24 65 5 20
14 50 19 66 41 122 47 197 62 860 13 517 8 1934 -9 2792 -9 452 1 397 -93 504
-24 26 -58 68 -77 93 -71 97 -110 130 -170 145 -83 22 -10472 27 -10570 6z"/>
</g>
</svg>
